<svg width="347" height="291" viewBox="0 0 347 291" fill="none" xmlns="http://www.w3.org/2000/svg">
<path d="M286.888 25.0005C286.71 25.0053 286.55 25.0461 286.418 25.1545C286.222 25.3161 286.514 25.5357 286.832 25.705C286.869 25.5432 286.944 25.2761 287.022 25.0021C286.976 24.9997 286.931 24.9997 286.888 25.0005V25.0005ZM288.991 25.1312C288.956 25.1327 288.92 25.1343 288.884 25.1359C288.859 25.2291 288.717 25.3204 288.991 25.1312ZM287.811 25.38C287.628 25.4675 287.411 25.5668 287.102 25.6926C287.067 25.707 287.024 25.7425 286.982 25.7812C287.075 25.8259 287.166 25.8655 287.238 25.8947C287.729 26.0921 287.823 25.8042 287.909 25.5293C287.9 25.52 287.889 25.5123 287.881 25.5028C287.854 25.4734 287.827 25.427 287.811 25.38H287.811ZM289.118 26.8076C289.117 26.8311 289.117 26.8532 289.12 26.876C289.146 27.1506 289.227 27.4185 289.305 27.6862C289.325 27.683 289.344 27.6814 289.364 27.6782C289.297 27.3832 289.226 27.0884 289.118 26.8074L289.118 26.8076ZM199.043 51.0957C198.922 51.7452 198.795 52.4753 198.668 53.2745C198.859 53.211 199.084 53.1004 199.279 52.9743C199.316 52.3844 199.355 51.7944 199.392 51.2046C199.351 51.203 199.311 51.1998 199.27 51.1982C199.194 51.1648 199.119 51.1295 199.043 51.0956V51.0957ZM41.7928 57.8217C41.7839 57.8542 41.7866 57.9144 41.7789 57.9492C41.7869 57.9428 41.7952 57.9366 41.8033 57.9306C41.8006 57.8935 41.7952 57.8585 41.7928 57.8217V57.8217ZM240.711 92.0176C240.721 92.0216 240.153 92.4355 239.898 92.5852C240.485 92.1662 240.705 92.0153 240.711 92.0176ZM252.964 141.965C252.771 141.505 249.76 143.861 246.272 147.202C238.208 154.924 227.033 162.329 213.963 168.611C212.369 169.377 211.999 169.498 210.528 170.188C210.651 170.525 210.686 170.48 210.348 170.641C210.257 170.73 210.179 170.832 210.074 170.908C209.926 171.016 209.724 171.051 209.557 171.135C209.511 171.159 209.475 171.198 209.427 171.219C209.313 171.268 209.19 171.302 209.072 171.344C208.649 171.538 208.226 171.734 207.803 171.928C207.19 172.19 206.571 172.442 205.962 172.712C203.91 173.623 201.894 174.599 199.834 175.494C198.531 176.146 199.981 175.446 198.2 176.189C197.974 176.284 197.768 176.415 197.539 176.503C197.121 176.665 196.679 176.776 196.263 176.94C195.933 177.07 195.616 177.221 195.299 177.374C195.052 177.545 194.862 177.72 194.549 177.889C194.554 177.897 194.559 177.906 194.564 177.914C194.542 177.923 194.52 177.933 194.498 177.942C194.502 177.951 194.505 177.961 194.509 177.97C194.527 178.024 194.392 178.016 194.338 178.046C193.845 178.306 193.382 178.609 192.917 178.905C191.819 179.591 190.689 180.234 189.578 180.901C189.337 181.043 189.109 181.197 188.852 181.314C188.803 181.336 188.725 181.417 188.7 181.373C188.697 181.368 188.695 181.365 188.693 181.36C188.562 181.432 188.372 181.532 187.988 181.749C187.884 181.807 187.784 181.99 187.68 181.931C187.61 181.891 187.557 181.861 187.497 181.828L186.434 182.531C185.11 183.406 182.506 185.337 180.65 186.822C179.669 187.607 178.788 188.238 178.11 188.671C178.038 188.729 177.965 188.788 177.894 188.845C177.149 189.441 176.405 190.039 175.662 190.637L175.77 190.769L172.633 194.215C170.908 196.11 168.649 199.159 167.614 200.991C166.578 202.822 165.311 204.551 164.798 204.833C164.285 205.116 160.761 203.577 156.967 201.412C146.576 195.485 141.248 193.317 131.866 191.196C130.881 190.974 130.103 190.718 129.213 190.478C126.733 190.471 124.256 190.394 121.781 190.242C121.255 190.181 120.725 190.133 120.201 190.058C119.885 190.013 119.577 189.934 119.262 189.882C118.518 189.759 117.755 189.744 117.002 189.708C114.763 189.562 112.526 189.382 110.324 188.983C109.695 188.861 109.064 188.748 108.432 188.641C98.8042 188.674 88.2171 190.059 73.4613 193.347C55.5701 197.334 44.3221 198.091 31.8369 196.151C27.2658 195.441 21.5486 193.967 19.1321 192.876C13.4635 190.317 12.5433 190.339 13.299 193.022C13.8968 195.147 11.5279 200.446 9.97922 200.446C9.5837 200.446 7.81658 199.909 6.05208 199.252C-2.3075 196.14 -2.0871 198.484 7.21277 211.628C11.5656 217.78 18.3693 227.366 22.3332 232.93C26.2971 238.494 33.2016 248.24 37.6753 254.59C49.7982 271.797 46.1919 269.765 67.485 271.384C193.282 280.948 202.699 281.785 205.473 283.628C208.956 285.941 213.359 287.944 217.909 289.287C220.276 289.985 224.543 290.271 230.048 290.098C239.142 289.814 245.409 288.182 251.386 284.547C254.437 282.691 256.961 282.367 295.285 278.915C347.728 274.192 345.127 274.478 346.198 273.328C346.856 272.622 346.198 270.187 343.906 264.857C342.138 260.743 340.316 255.468 339.859 253.136C338.8 247.738 333.86 239.016 329.995 235.723C325.937 232.265 318.794 229.508 308.968 227.607C304.453 226.733 299.519 225.449 298.006 224.752L295.255 223.483L300.889 219.225C307.367 214.328 313.198 207.898 316.212 202.325C318.921 197.317 320.803 189.424 319.554 188.312C319.049 187.862 315.897 186.511 312.547 185.309C305.451 182.763 288.783 174.265 280.232 168.834C268.373 161.302 255.912 149.025 252.964 141.965L252.964 141.965ZM252.184 145.451L254.879 149.659C258.261 154.94 267.662 163.437 276.939 169.599C286.807 176.153 304.968 185.639 311.871 187.845L317.626 189.683L317.064 192.478C315.445 200.51 311.108 206.949 302.025 214.808C294.611 221.224 286.286 226.321 272.497 232.886C252.899 242.218 245.785 247.722 238.154 259.462C236.27 262.361 233.955 266.58 233.009 268.84C231.226 273.098 230.048 273.429 230.048 269.669C230.048 265.878 223.817 256.501 216.104 248.687L208.671 241.154L208.69 241.09C208.368 240.81 208.044 240.532 207.721 240.253C206.693 239.317 205.657 238.379 204.772 237.33C204.534 237.048 204.311 236.756 204.082 236.47C204.065 236.448 204.048 236.427 204.032 236.406C202.108 235.022 198.728 232.243 194.749 228.689C188.851 223.422 180.406 216.64 175.983 213.62C171.559 210.6 167.616 207.885 167.219 207.587C166.407 206.978 171.11 199.71 174.906 195.708C175.626 194.948 176.101 194.355 176.557 194.036C176.69 193.689 176.893 193.378 177.198 193.115C177.439 192.822 177.683 192.534 177.962 192.265C177.967 192.262 177.972 192.258 177.976 192.255C177.975 192.256 177.978 192.253 177.978 192.252C177.978 192.25 177.985 192.242 177.988 192.24C178.067 192.164 178.147 192.089 178.228 192.014C178.471 191.791 178.504 191.809 178.915 191.556C178.959 191.547 179.004 191.538 179.048 191.529L178.894 191.325L182.8 188.279C185.481 186.188 187.03 184.741 188.208 184.78C188.215 184.78 188.222 184.785 188.229 184.786C188.478 184.606 188.735 184.433 189.005 184.273C189.566 183.921 190.064 183.491 190.651 183.169C191.331 182.781 192.026 182.409 192.662 181.964C194.734 180.715 196.861 179.511 199.16 178.619C199.502 178.507 199.838 178.383 200.185 178.284C200.296 178.252 200.411 178.226 200.525 178.2C202.33 176.581 205.551 175.15 211.729 172.403C224.759 166.607 234.774 160.426 244.02 152.472L252.184 145.451ZM240.875 187.436C240.885 187.584 240.905 187.751 240.935 187.942C240.971 187.874 241.012 187.797 241.053 187.721C240.992 187.626 240.932 187.531 240.875 187.436ZM110.165 191.061C111.639 191.084 113.116 191.137 114.613 191.22L123.841 191.731L124.003 191.842C124.154 191.851 124.1 191.85 124.008 191.845L124.014 191.848C124.07 191.851 124.096 191.853 124.246 191.861C124.355 191.881 124.462 191.908 124.569 191.938C124.607 191.944 124.701 191.977 124.783 192.005C124.82 192.018 124.845 192.022 124.879 192.035C124.968 192.056 125.052 192.077 125.091 192.088C125.099 192.09 125.118 192.094 125.131 192.097C125.133 192.097 125.133 192.096 125.136 192.099C125.233 192.115 125.604 192.195 125.611 192.197C125.617 192.198 125.629 192.202 125.639 192.204C125.693 192.214 125.74 192.222 125.771 192.228C125.772 192.224 126.052 192.258 126.079 192.26C126.198 192.266 126.321 192.282 126.442 192.302C126.472 192.305 126.531 192.302 126.557 192.306C126.651 192.316 126.741 192.346 126.833 192.369C126.845 192.369 126.842 192.367 126.923 192.371C127.118 192.39 127.312 192.414 127.506 192.435C127.648 192.444 127.782 192.492 127.92 192.516C127.924 192.519 127.911 192.506 127.913 192.506C127.993 192.506 128.07 192.519 128.15 192.522C128.565 192.519 128.973 192.561 129.379 192.632C130.302 192.832 131.222 193.051 132.119 193.331C132.461 193.432 132.757 193.613 133.067 193.769C133.262 193.867 133.473 193.949 133.676 194.032C133.919 194.135 134.162 194.232 134.413 194.316C134.263 194.272 134.203 194.254 134.191 194.276C137.264 195.084 141.435 196.424 144.667 197.867C154.715 202.352 174.838 215.339 188.047 225.861C189.448 226.976 190.316 227.749 190.749 228.237C190.778 228.26 190.807 228.283 190.836 228.306C191.344 228.706 191.852 229.106 192.344 229.52C193.111 230.165 194.282 231.293 194.938 231.912C195.955 232.919 196.938 233.952 197.919 234.986C198.071 235.105 198.225 235.222 198.373 235.344C198.57 235.49 198.769 235.635 198.965 235.783C199.086 235.873 199.214 235.954 199.328 236.052C199.633 236.314 199.845 236.521 200.07 236.828C200.653 237.624 200.116 236.924 200.324 237.255C200.392 237.331 200.46 237.406 200.527 237.482C200.542 237.495 200.559 237.512 200.574 237.524C200.585 237.531 200.595 237.539 200.605 237.546C200.606 237.545 200.608 237.544 200.609 237.544C200.619 237.551 200.645 237.572 200.635 237.566C200.626 237.561 200.616 237.553 200.605 237.546C200.605 237.547 200.604 237.545 200.602 237.548C200.605 237.55 200.606 237.553 200.609 237.555C200.673 237.606 200.744 237.662 200.878 237.77C200.888 237.786 200.893 237.795 200.902 237.811C201.934 238.663 202.983 239.566 204.142 240.627C214 249.656 220.418 256.635 223.788 261.993C226.754 266.709 227.234 269.242 224.332 264.865C219.098 256.97 205.966 247.564 192.093 241.772C179.549 236.534 172.848 235.287 155.054 234.879C135.105 234.422 120.585 236.09 91.4376 242.19C88.1901 242.869 81.4161 243.825 76.3834 244.313L67.2321 245.199L64.415 242.85C62.865 241.558 58.6216 238.751 54.9863 236.613C41.3535 228.593 30.2382 217.391 21.4659 202.832C19.2243 199.112 17.3837 195.833 17.3764 195.546C17.3683 195.26 19.2841 195.677 21.6352 196.473C34.4885 200.824 52.7197 200.58 74.1072 195.769C89.7103 192.259 99.8504 190.901 110.165 191.061ZM124.783 192.005C124.658 191.978 124.605 191.968 124.6 191.968C124.591 191.967 124.717 191.997 124.844 192.027C124.822 192.019 124.81 192.015 124.783 192.005H124.783ZM345.763 192.951C345.762 192.965 345.76 192.979 345.758 192.993C345.764 192.968 345.765 192.935 345.763 192.951ZM14.9346 198.88C15.6716 198.914 17.0687 200.764 19.9212 205.348C28.3012 218.816 38.6047 229.408 50.4291 236.711C53.9431 238.881 59.099 242.206 61.8876 244.099L66.958 247.541L74.1072 247.02C78.0393 246.733 85.0767 245.788 89.746 244.92C132.586 236.959 127.652 237.567 149.62 237.546C173.07 237.522 177.642 238.307 193.086 245.02C207.74 251.389 219.048 260.46 224.585 270.284C227.151 274.838 227.006 275.788 224.016 274.029C205.268 263 185.758 255.408 166.6 251.687C155.45 249.521 132.451 249.686 117.449 252.04C99.4429 254.864 80.1521 256.456 71.606 255.822L64.0537 255.26L58.8035 249.968C49.5016 240.591 37.4995 229.517 36.3507 229.252C33.5387 228.604 36.0595 231.663 46.6381 241.738C52.9104 247.712 58.9583 253.652 60.0777 254.937C61.6773 256.773 63.1093 257.399 66.7695 257.864C77.3303 259.205 91.8706 258.207 121.024 254.139C141.638 251.262 154.916 251.613 172.284 255.49C185.532 258.448 196.325 262.352 209.048 268.788C218.542 273.592 229.155 279.945 229.155 280.825C229.155 281.214 229.399 282.098 229.698 282.791C230.137 283.811 229.586 284.037 226.793 283.982C220.21 283.851 213.811 281.164 206.487 275.454C202.649 272.461 199.683 271.031 193.231 269.057C177.041 264.105 176.277 264.038 127.726 263.317C84.6647 262.678 70.241 261.983 60.7025 260.086C56.4138 259.233 55.9471 258.858 49.0851 250.746C45.1531 246.097 38.3094 237.805 33.8774 232.319C29.4455 226.832 23.7301 219.835 21.1761 216.769C18.6221 213.704 16.0319 210.3 15.4215 209.205C14.8104 208.11 13.7495 206.609 13.0635 205.868C12.3775 205.127 11.9838 204.071 12.189 203.522C12.3943 202.974 13.8724 204.565 15.4739 207.059C17.0754 209.553 19.0016 211.594 19.7554 211.594C21.4731 211.594 21.0083 210.475 16.9243 204.787C14.7072 201.699 13.9823 199.994 14.5209 199.137C14.6306 198.962 14.7645 198.873 14.9346 198.88ZM293.836 225.644C294.322 225.708 294.757 225.898 295.285 226.168C298.175 227.646 305.073 229.562 311.737 230.736C319.4 232.086 324.163 234.139 328.414 237.927C332.918 241.939 332.873 241.979 320.991 244.396C313.853 245.848 310.224 246.061 294.691 245.936C274.153 245.769 266.403 246.768 256.863 250.808C253.016 252.437 248.874 255.174 244.575 258.93C241.009 262.047 238.091 264.516 238.091 264.417C238.091 263.855 242.496 257.602 245.342 254.123C250.173 248.218 256.079 243.914 266.21 238.914C271.142 236.48 279.199 232.358 284.114 229.756C290.448 226.403 292.377 225.454 293.836 225.644ZM333.059 244.59C333.387 244.609 333.615 244.664 333.713 244.757C334.573 245.569 337.286 252.634 337.286 254.063C337.286 256.029 331.672 261.839 328.283 263.38C323.836 265.401 323.31 265.376 310.33 262.552C297.962 259.861 289.906 259.535 281.182 261.367C274.641 262.741 270.397 264.559 261.773 269.683C253.898 274.361 250.518 275.75 243.361 277.253C233.243 279.378 233.246 279.307 243.574 273.073C255.077 266.129 267.421 261.317 277.635 259.795C279.817 259.47 280.986 258.867 280.986 258.067C280.986 257.065 280.289 256.944 277.188 257.403C266.28 259.023 254.722 263.534 242.526 270.933C238.5 273.376 235.077 275.26 234.918 275.119C234.237 274.513 240.416 266.138 244.445 262.21C249.9 256.892 255.818 253.463 264.218 250.75C270.479 248.729 271.438 248.651 291.263 248.559C311.433 248.466 318.123 247.875 328.215 245.3C330.187 244.796 332.073 244.534 333.059 244.59ZM245.731 279.416C246.15 279.376 245.859 279.667 244.822 280.419C243.854 281.12 241.516 282.065 239.627 282.519C237.738 282.972 235.666 283.523 235.023 283.743C234.098 284.059 232.729 282.604 232.729 281.303C232.729 281.176 235.17 280.826 238.152 280.525C241.135 280.224 244.251 279.79 245.078 279.561C245.374 279.479 245.592 279.429 245.731 279.416Z" fill="#ED8513" fill-opacity="0.604911"/>
<path d="M53.1816 0.000435064C53.0446 -0.00593478 52.9082 0.0576825 52.7731 0.188607C51.6735 1.25489 46.4859 11.2888 45.4267 14.3979C42.6025 22.6883 44.6932 35.5476 49.9683 42.3297L52.3403 45.3809L51.6037 55.5499L50.8654 65.7205L47.523 60.9944C40.768 51.4417 38.1906 50.1319 39.1764 56.7536C40.4552 65.3422 44.3954 72.2098 49.5598 74.8507C51.7769 75.9844 52.1003 76.7613 53.0821 83.3029C53.6768 87.265 54.8657 93.2379 55.7246 96.576L57.2867 102.646L47.4619 93.9882C42.0584 89.2269 37.2969 85.3308 36.8795 85.3308C35.4974 85.3308 36.0961 88.0428 38.8919 94.447C42.287 102.224 46.1806 107.719 51.5793 112.354C56.3148 116.42 59.008 117.908 61.7079 117.948C63.1862 117.969 64.0735 119.005 65.656 122.555C71.261 135.127 80.8416 149.962 88.8262 158.435C91.7861 161.576 94.2072 164.315 94.2072 164.523C94.2072 164.731 92.4253 163.828 90.2469 162.518C85.5114 159.671 79.3808 157.198 68.8239 153.878C64.6334 152.56 61.8941 151.796 60.2819 151.576C60.2414 151.627 60.1995 151.676 60.1597 151.727C59.7934 152.095 59.4135 152.459 59.0426 152.828C59.7496 153.84 61.3463 155.397 63.9577 157.716C72.1996 165.038 82.7541 168.861 95.0415 168.974C98.965 169.01 99.471 169.309 108.176 176.737L117.192 184.43C118.152 185.084 119.183 185.797 120.575 186.752C121.497 187.419 122.438 188.066 123.342 188.754C123.408 188.804 123.47 188.859 123.535 188.911L129.028 192.645C138.747 199.251 148.056 204.91 156.481 209.334C160.016 211.19 164.442 213.656 166.315 214.813C169.114 216.542 169.322 216.836 167.486 216.457C159.698 214.849 151.846 214.251 144.642 214.718L136.544 215.242L134.934 212.064C132.774 207.795 128.743 204.473 122.776 202.044C117.135 199.747 113.777 199.193 113.264 200.473C113.069 200.959 116.649 204.77 121.221 208.944L129.532 216.533L118.348 217.444C112.197 217.945 104.752 218.554 101.803 218.797C94.1388 219.429 82.4935 217.866 80.8026 215.978C78.179 213.048 61.3283 207.154 55.5745 207.154C53.357 207.154 53.604 209.124 56.0039 210.581C57.1098 211.253 59.6231 213.099 61.5892 214.685C67.478 219.436 71.3781 220.903 76.6747 220.36C79.1903 220.103 83.059 219.983 85.2708 220.093C87.4826 220.203 94.4322 220.267 100.714 220.234L112.136 220.175L104.065 224.074C99.6266 226.218 95.9945 228.267 95.9945 228.626C95.9945 229.778 98.6662 230.245 105.261 230.245C114.072 230.245 118.788 228.128 122.076 222.696L124.478 218.73L133.142 217.76C157.526 215.031 166.618 216.352 185.22 225.326C192.565 228.868 195.9 231.101 201.454 236.187C201.762 236.469 201.965 236.69 202.263 236.966C203.6 236.885 204.78 236.818 206.014 236.748L205.981 236.714L207.276 232.285C209.638 224.203 219.475 205.262 227.493 193.355L230.494 188.901C229.907 188.672 229.322 188.444 228.736 188.214L227.271 190.265C220.729 199.433 206.807 225.372 206.807 228.392C206.807 228.974 206.422 229.448 205.951 229.448C205.481 229.448 204.294 227.03 203.314 224.074C196.934 204.825 194.852 194.116 195.348 183.102C195.471 180.369 195.622 178.483 196.055 176.972C196.065 176.865 196.082 176.759 196.097 176.653C196.137 176.431 196.172 176.207 196.216 175.986C196.327 175.415 196.461 174.848 196.6 174.281C196.62 174.163 196.641 174.045 196.664 173.927C196.698 173.748 196.736 173.57 196.774 173.392C196.794 173.282 196.815 173.173 196.837 173.064C196.922 172.523 196.839 173.017 196.98 172.338C197 172.244 197.014 172.149 197.032 172.056C197.145 171.542 197.271 171.031 197.392 170.518C197.429 170.312 197.47 170.108 197.509 169.902C197.536 169.739 197.559 169.574 197.593 169.412C197.627 169.249 197.675 169.088 197.717 168.926C197.737 168.843 197.752 168.76 197.779 168.678C197.793 168.633 197.783 168.545 197.835 168.548C197.859 168.549 197.877 168.549 197.898 168.551C198.034 168.039 198.118 167.647 198.439 166.691C201.837 156.584 211.104 144.16 225.165 130.857C229.091 127.143 231.792 124.911 233.304 124.133C232.522 123.444 231.741 122.756 230.935 122.09C230.892 122.054 230.901 122.063 230.86 122.029C230.139 123.222 228.573 124.954 225.727 127.64C208.156 144.223 197.889 158.35 195.64 169.031C195.487 169.757 195.255 170.328 194.968 170.849C194.79 172.301 194.541 173.743 194.297 175.187C194.108 176.239 194.033 176.68 193.847 177.647C193.843 177.665 193.842 177.679 193.838 177.698C193.828 177.753 193.82 177.808 193.81 177.863C193.827 177.861 193.824 177.861 193.808 177.869C193.798 177.935 193.789 178.001 193.775 178.067C193.772 178.094 193.761 178.113 193.765 178.145C193.764 178.166 193.762 178.183 193.761 178.202C193.76 178.485 193.751 178.768 193.723 179.05C193.716 179.111 193.672 179.398 193.662 179.457C193.66 179.466 193.658 179.476 193.655 179.485C193.647 179.622 193.64 179.726 193.634 179.795C193.636 179.894 193.643 179.992 193.641 180.09C193.641 180.108 193.641 180.12 193.641 180.126C193.64 180.119 193.636 180.094 193.634 180.078C193.636 180.095 193.635 180.111 193.618 180.117C193.615 180.117 193.611 180.119 193.607 180.12C193.615 180.638 193.64 181.033 193.604 181.952C193.156 194.03 193.059 194.346 191.09 186.93C191.08 186.923 191.07 186.917 191.056 186.911C191.056 186.801 191.014 186.692 190.993 186.583C190.992 186.581 190.993 186.577 190.991 186.574C190.942 186.389 190.923 186.338 190.872 186.144C190.872 186.142 190.872 186.143 190.87 186.14C190.87 186.138 190.871 186.137 190.869 186.133C190.855 186.094 190.842 186.055 190.829 186.015H190.827C190.813 186.018 190.803 186.02 190.79 186.026C190.792 186.032 190.793 186.032 190.794 186.035C190.787 186.023 190.773 185.998 190.75 185.959C190.73 185.915 190.715 185.87 190.694 185.825C190.628 185.673 190.596 185.604 190.586 185.581C190.593 185.599 190.611 185.641 190.614 185.65C190.61 185.641 190.587 185.597 190.534 185.475C190.498 185.395 190.464 185.313 190.429 185.233C190.357 185.043 190.331 184.983 190.27 184.771C190.246 184.691 190.229 184.581 190.214 184.491C190.197 184.433 190.175 184.376 190.158 184.323C190.138 184.264 190.121 184.206 190.101 184.147C189.891 183.475 189.696 182.797 189.572 182.107C189.395 181.034 189.582 182.109 189.439 181.41C189.405 181.255 189.384 181.098 189.35 180.942C189.28 180.77 189.211 180.596 189.155 180.42C188.941 179.749 188.774 179.068 188.617 178.386C188.467 177.693 188.327 176.997 188.244 176.295C188.21 176.171 188.178 176.046 188.146 175.921C188.079 175.663 188.039 175.518 187.992 175.241C187.979 175.159 187.976 175.076 187.966 174.994C187.959 174.902 187.959 174.817 187.956 174.733C187.942 174.677 187.922 174.588 187.91 174.532C187.874 174.417 187.842 174.301 187.825 174.182C187.826 174.173 187.827 174.168 187.828 174.159C187.821 174.122 187.809 174.084 187.802 174.045C187.775 173.974 187.707 173.892 187.759 173.841C187.745 173.752 187.723 173.724 187.708 173.617C187.678 173.401 187.667 173.183 187.656 172.964L186.833 169.537C180.118 141.513 183.569 113.275 195.698 97.0192C203.048 87.1695 208.57 82.2385 222.888 72.7389C249.634 54.9942 253.775 52.1152 259.992 46.9423C263.653 43.8962 269.679 38.0459 273.383 33.9429C276.919 30.0251 279.844 26.9466 280.438 26.4767C279.905 25.8201 279.376 25.1643 278.855 24.5048C277.154 27.5365 263.554 41.7876 258.027 46.1896C251.205 51.6229 239.951 59.4174 221.159 71.7234C212.977 77.0815 206.572 82.0035 203.05 85.6403L197.601 91.2668L198.25 87.4101C199.598 79.3992 203.451 70.7507 214.25 51.4895C221.924 37.803 224.14 32.4469 225.124 25.2139C225.652 21.3375 226.038 19.4792 226.531 18.5346C226.08 18.4979 225.63 18.4568 225.18 18.4087C224.728 18.3743 224.648 18.3689 224.306 18.3434L223.204 24.6463C221.628 33.6622 220.739 35.7398 210.372 54.6745C200.69 72.3586 197.559 79.7411 196 88.5469C195.312 92.4382 194.082 95.7217 192.436 98.069C191.055 100.04 189.314 102.906 188.568 104.439C187.823 105.972 187.196 106.688 187.172 106.031C187.087 103.514 183.491 79.9477 182.568 75.8523C182.325 74.7735 182.185 73.9992 182.105 73.361C182.067 73.3369 182.06 73.3309 182.02 73.305C181.577 72.9459 181.163 72.568 180.77 72.1775C180.551 72.3012 180.338 72.4406 180.091 72.5041C179.917 72.5929 179.742 72.6804 179.569 72.7701C179.931 73.5179 180.239 74.5137 180.63 76.2194C181.226 78.8214 182.613 87.6816 183.711 95.9089C185.671 110.592 185.679 110.994 184.112 117.707C180.501 133.19 180.602 149.609 184.425 168.137L186.151 176.498L186.141 176.504C186.168 176.609 186.193 176.714 186.219 176.82C186.22 176.823 186.222 176.828 186.223 176.831C186.236 176.855 186.246 176.879 186.261 176.902C186.292 176.988 186.312 177.076 186.333 177.163C186.34 177.196 186.343 177.207 186.343 177.21C186.347 177.219 186.35 177.225 186.361 177.252C186.395 177.334 186.419 177.419 186.436 177.504C186.426 177.426 186.482 177.655 186.488 177.678C186.502 177.726 186.511 177.775 186.521 177.823C186.522 177.824 186.521 177.825 186.521 177.826C186.548 177.9 186.571 177.975 186.594 178.05C186.625 178.105 186.618 178.181 186.654 178.235C186.702 178.363 186.729 178.495 186.772 178.624C186.806 178.731 186.836 178.837 186.87 178.944C186.944 179.135 186.998 179.331 187.064 179.524C187.122 179.679 187.163 179.838 187.211 179.995C187.286 180.212 187.357 180.431 187.427 180.65C187.556 181.012 187.659 181.38 187.757 181.75C187.842 182.078 187.928 182.406 188.008 182.736C188.099 183.138 188.19 183.54 188.298 183.939C188.437 184.433 188.606 184.92 188.766 185.409C188.832 185.609 188.829 185.601 188.905 185.813C188.922 185.858 188.943 185.902 188.956 185.948C188.983 186.044 188.995 186.143 189.022 186.239C189.039 186.305 189.053 186.345 189.064 186.371C189.071 186.393 189.061 186.409 189.064 186.418C189.186 186.687 189.298 186.958 189.396 187.235C189.403 187.28 189.408 187.325 189.418 187.37C189.432 187.429 189.456 187.487 189.473 187.546C189.486 187.598 189.494 187.652 189.508 187.704C189.587 188.046 189.664 188.385 189.726 188.729C189.695 188.741 189.713 188.788 189.736 188.83C189.74 188.839 189.741 188.849 189.748 188.858C189.804 188.971 189.874 189.078 189.925 189.193C189.959 189.27 189.976 189.354 190.003 189.434C190.034 189.521 190.069 189.608 190.099 189.695C190.158 189.971 190.266 190.232 190.366 190.497C190.521 190.946 190.653 191.416 190.626 191.889C190.606 192.048 190.647 192.207 190.666 192.365C190.677 192.462 190.69 192.554 190.726 192.646C190.768 192.734 190.806 192.823 190.843 192.912C190.89 193.019 190.913 193.134 190.954 193.242C191.006 193.384 191.032 193.533 191.056 193.681C191.059 193.792 191.086 193.903 191.094 194.013C191.094 194.055 191.089 194.097 191.089 194.139C191.355 195.081 191.522 195.65 191.851 196.824C194.553 206.446 196.628 214.317 196.463 214.317C196.297 214.317 195.052 212.615 193.698 210.535C192.344 208.455 187.856 202.283 183.723 196.819C183.084 195.869 181.462 193.821 180.101 192.077C180.056 192.095 180.028 192.092 180.077 192.046C179.499 191.305 179.187 190.866 178.777 190.32C178.746 190.287 178.716 190.256 178.672 190.217C178.481 190.018 178.303 189.809 178.162 189.578V189.577C178.161 189.576 178.16 189.579 178.159 189.578C178.064 189.49 177.989 189.395 177.949 189.283C177.614 189.44 177.689 189.383 177.92 189.245C177.912 189.236 177.909 189.228 177.902 189.22C177.842 189.22 177.821 189.171 177.791 189.057C177.783 189.06 177.776 189.064 177.77 189.067C177.753 189.073 177.755 189.099 177.777 189.126C177.75 189.087 177.727 189.044 177.709 189.001H177.71C177.703 188.989 177.698 188.98 177.691 188.969C177.671 188.936 177.667 188.928 177.67 188.931C177.667 188.925 177.668 188.928 177.663 188.922C177.646 188.889 177.629 188.856 177.614 188.824C177.617 188.827 177.621 188.83 177.625 188.833C177.611 188.812 177.6 188.792 177.6 188.776C177.634 188.851 177.605 188.778 177.588 188.746C177.589 188.753 177.587 188.757 177.59 188.763C177.588 188.757 177.586 188.755 177.583 188.749C177.582 188.746 177.581 188.74 177.579 188.734C177.566 188.71 177.559 188.69 177.542 188.662L177.532 188.644C177.522 188.622 177.506 188.594 177.502 188.588C177.58 188.666 177.521 188.6 177.467 188.533C177.475 188.548 177.475 188.554 177.485 188.575L176.432 187.182C176.348 187.091 176.285 187.026 176.12 186.849C175.916 186.62 175.276 185.908 175.015 185.603C174.776 185.324 174.539 185.043 174.305 184.76C174.303 184.76 174.287 184.773 174.284 184.77C174.151 184.632 173.504 183.764 173.289 183.512C173.216 183.42 173.142 183.331 173.069 183.239C172.971 183.113 172.872 182.987 172.772 182.86C172.765 182.848 172.756 182.839 172.75 182.827C169.962 179.46 163.623 171.092 160.129 166.044C154.62 158.087 145.701 142.606 141.016 132.87C137.317 125.183 133.602 113.33 134.129 111.283C133.862 111.33 133.594 111.375 133.328 111.426C132.572 111.628 131.815 111.829 131.059 112.03C131.644 112.937 132.632 115.483 133.544 118.571C136.287 127.854 139.471 134.962 146.417 147.313C154.653 161.957 161.736 172.44 171.343 184.199L172.849 186.043C172.859 186.052 172.876 186.061 172.886 186.073C172.906 186.088 172.925 186.103 172.945 186.12L172.961 186.135C172.978 186.153 172.996 186.168 173.013 186.186C173.017 186.189 173.024 186.193 173.027 186.196C173.034 186.205 173.036 186.213 173.043 186.219C173.05 186.225 173.053 186.235 173.057 186.238H173.046C173.05 186.244 173.052 186.253 173.058 186.259C173.042 186.244 173.029 186.235 173.039 186.247C173.053 186.262 173.068 186.277 173.083 186.292C173.076 186.283 173.069 186.271 173.062 186.261C173.073 186.268 173.082 186.276 173.092 186.284C173.092 186.284 173.078 186.267 173.081 186.27C173.095 186.279 173.101 186.291 173.111 186.303C173.108 186.3 173.1 186.297 173.097 186.29C173.099 186.294 173.104 186.3 173.107 186.303V186.304C173.113 186.312 173.117 186.32 173.123 186.329C173.11 186.316 173.096 186.304 173.085 186.29C173.108 186.324 173.131 186.358 173.158 186.39C173.138 186.378 173.078 186.341 173.095 186.356C173.136 186.39 173.179 186.423 173.223 186.455C173.215 186.446 173.214 186.436 173.21 186.427L173.23 186.446C173.226 186.44 173.221 186.43 173.217 186.424C173.246 186.452 173.276 186.479 173.296 186.511C173.282 186.499 173.269 186.486 173.256 186.474C173.254 186.472 173.249 186.472 173.245 186.471C173.247 186.473 173.247 186.476 173.249 186.479C173.241 186.474 173.234 186.467 173.226 186.462C173.225 186.46 173.223 186.458 173.223 186.457H173.212C173.214 186.458 173.22 186.46 173.223 186.462C173.239 186.49 173.257 186.515 173.278 186.539C173.286 186.548 173.292 186.552 173.292 186.552C173.291 186.545 173.278 186.521 173.259 186.494C173.273 186.503 173.286 186.515 173.298 186.525C173.298 186.527 173.307 186.529 173.308 186.532H173.312L173.345 186.558C173.365 186.576 173.378 186.601 173.394 186.622C173.401 186.63 173.407 186.639 173.413 186.647C173.402 186.639 173.394 186.633 173.374 186.619C173.366 186.602 173.352 186.585 173.341 186.567C173.348 186.583 173.356 186.597 173.364 186.612C173.34 186.594 173.308 186.568 173.322 186.58C173.339 186.592 173.351 186.607 173.367 186.619L173.375 186.62V186.622C173.374 186.621 173.37 186.622 173.367 186.62C173.371 186.627 173.375 186.636 173.381 186.642C173.392 186.657 173.381 186.644 173.371 186.623C173.387 186.638 173.405 186.651 173.422 186.665C173.43 186.675 173.437 186.683 173.444 186.693L173.455 186.7C173.475 186.718 173.495 186.736 173.514 186.756L173.526 186.768C173.527 186.769 173.531 186.77 173.532 186.771C173.533 186.772 173.536 186.773 173.537 186.775C173.567 186.805 173.591 186.842 173.616 186.876C173.617 186.878 173.623 186.882 173.626 186.885C173.66 186.921 173.707 186.976 173.727 187.005C173.751 187.038 173.83 187.152 173.816 187.132C173.872 187.206 173.923 187.284 173.973 187.361C173.98 187.373 173.986 187.382 173.993 187.393L174.01 187.408C174.074 187.474 174.131 187.545 174.183 187.619C174.199 187.636 174.284 187.736 174.301 187.757C174.294 187.733 174.337 187.794 174.354 187.812C174.384 187.843 174.409 187.876 174.438 187.908C174.531 188.033 174.519 188.016 174.541 188.053C174.548 188.059 174.553 188.067 174.56 188.073C174.653 188.171 174.727 188.28 174.795 188.392C174.795 188.398 174.853 188.476 174.86 188.487C174.928 188.571 174.996 188.656 175.066 188.739C175.124 188.832 175.211 188.915 175.26 189.014C175.26 189.016 175.263 189.023 175.265 189.023C175.318 189.095 175.371 189.166 175.422 189.238C175.509 189.359 175.594 189.48 175.677 189.603C175.8 189.795 175.926 189.983 176.066 190.165C176.23 190.361 176.414 190.543 176.551 190.756C176.666 190.922 176.77 191.094 176.867 191.269C176.931 191.361 176.993 191.453 177.052 191.547C178.448 193.163 180.35 195.675 183.908 200.399C192.264 211.493 199.167 222.244 201.493 227.784C202.489 230.155 203.186 232.488 203.041 232.968C202.923 233.361 199.273 230.455 194.833 226.627C194.427 226.568 194.117 226.432 193.726 226.269C193.28 226.049 192.846 225.809 192.407 225.578C191.226 225.155 190.055 224.712 188.891 224.25C188.488 224.089 188.076 223.943 187.675 223.778C188.16 224.598 186.177 223.805 180.885 220.796C177.199 218.701 169.759 214.555 164.353 211.584C146.929 202.009 130.224 191.84 127.949 189.513C127.468 189.14 126.989 188.767 126.505 188.395C125.236 187.42 123.936 186.476 122.734 185.434C122.318 185.064 122.02 184.802 121.746 184.532C118.277 183.181 116.366 181.79 117.091 180.745C118.21 179.132 117.465 163.87 116.056 159.552C114.121 153.622 111.441 149.042 109.905 149.042C107.584 149.042 106.871 168.913 109.004 174.124C110.747 178.378 91.5799 159.585 83.8915 149.5L78.8508 142.887L80.6887 139.677C85.6548 131.004 87.6208 115.929 84.9702 106.842C83.8761 103.091 81.5235 101.923 80.9627 104.852C80.795 105.727 79.2514 110.375 77.5312 115.179C75.536 120.752 74.3464 125.723 74.2481 128.908C74.1632 131.654 74.0013 133.905 73.8868 133.908C73.3623 133.926 68.8889 125.336 65.6381 118.066C61.7193 109.302 56.6684 94.8111 56.6684 92.3343C56.6684 91.4754 58.8994 88.3875 61.6254 85.4714C68.4867 78.1319 72.1461 71.2769 72.6005 64.9188C72.9024 60.694 72.7294 59.8645 71.541 59.8646C70.7591 59.8646 69.4562 61.0086 68.6454 62.4057C67.8346 63.8027 64.6056 68.2923 61.4718 72.3819C58.3381 76.4715 55.7286 80.4333 55.6718 81.187C55.4479 84.1734 54.0864 75.8811 54.0381 71.2357C53.991 66.7059 54.3211 65.8242 57.8955 60.8847C65.6593 50.156 68.8753 42.7773 69.272 34.7833C69.535 29.4845 69.2453 27.8641 68.0973 28.2051C67.0442 28.5179 66.1174 29.8454 58.2323 42.3475C56.161 45.6319 54.3452 47.766 54.197 47.0891C54.0487 46.4121 54.9453 42.1125 56.1902 37.5344C58.9336 27.4451 58.9803 24.5661 56.6091 11.5123C55.1635 3.55413 54.1344 0.0606221 53.1759 0.0135808L53.1816 0.000435064ZM52.6422 5.24124C53.5037 5.42482 54.0604 8.54399 55.311 15.6498C56.8449 24.3657 56.7201 28.6517 54.728 35.7655C54.2068 37.6267 53.4619 39.1494 53.0733 39.1494C52.3602 39.1494 50.5684 30.7611 50.1812 25.6135C50.0659 24.0808 49.5784 22.8267 49.0973 22.8267C47.7028 22.8267 47.699 27.1544 49.0991 33.1248C49.809 36.1607 50.22 38.7961 50.012 38.9815C49.8039 39.1669 48.7504 36.7287 47.6714 33.5634C44.907 25.4545 45.552 17.4872 49.6088 9.64539C51.1165 6.73084 51.9723 5.09842 52.6423 5.24124H52.6422ZM67.0488 33.4763C67.3036 33.4795 67.3521 33.9517 67.3525 34.7702C67.3561 40.8588 64.6969 47.4835 58.6429 56.4674C56.5034 59.6424 54.5827 62.2401 54.3737 62.2401C54.1647 62.2401 53.9932 60.2323 53.9932 57.7769C53.9932 52.7478 56.4952 47.4343 63.3311 37.9551C65.6265 34.7721 66.624 33.4715 67.0488 33.4763ZM41.7788 56.8018C42.0157 56.8473 42.4584 57.3208 43.2939 58.259C45.5637 60.8079 51.3122 70.8743 51.3122 72.3003C51.3122 74.1668 49.7626 73.5023 46.8841 70.4015C44.1726 67.4803 41.4618 61.1938 41.5013 57.9153C41.5108 57.139 41.5419 56.7564 41.7788 56.8018ZM70.5204 64.7812C70.6673 64.7932 70.7545 64.9127 70.7909 65.1342C71.255 67.9587 67.3707 75.7222 62.7429 81.2174C56.7543 88.3286 56.6741 88.3912 56.6741 85.9264C56.6741 82.8842 58.0727 80.3479 64.6646 71.4372C68.1385 66.7412 69.8846 64.7344 70.5204 64.7812ZM245.055 74.7092C245.024 74.7512 244.868 74.9498 244.918 74.8911C244.966 74.8328 245.013 74.7725 245.061 74.7139L245.055 74.7092ZM39.9305 90.4285C40.2638 90.1315 48.3962 97.0361 52.2408 100.881C55.8719 104.512 60.5308 111.621 59.7408 112.325C59.4482 112.586 57.7333 111.272 55.9306 109.404C54.1279 107.537 52.3511 106.014 51.9825 106.02C50.5078 106.047 51.5032 107.644 55.4157 111.521C57.673 113.758 59.2643 115.588 58.9519 115.588C57.5692 115.588 48.9727 107.634 46.1895 103.781C43.5024 100.06 39.2649 91.0215 39.9305 90.4285ZM240.711 90.8702C240.721 90.8741 240.153 91.2881 239.898 91.4378C240.485 91.0188 240.705 90.8679 240.711 90.8702ZM82.8412 107.227L83.5201 109.218C84.9161 113.309 84.4083 123.737 82.5078 130.013C81.4796 133.408 80.0657 136.837 79.3661 137.632C78.1854 138.973 78.1275 138.933 78.5667 137.086C80.1088 130.599 80.4932 127.455 79.7902 127.068C78.8893 126.572 78.5456 127.315 77.3693 132.308L76.5263 135.891L76.4303 130.607C76.3406 125.652 78.7033 116.336 81.7555 109.616L82.8412 107.227ZM110.56 152.074L112.174 155.13C113.062 156.811 114.226 160.022 114.761 162.265C115.297 164.508 115.616 169.166 115.471 172.616C115.218 178.658 115.167 178.789 114.091 176.182C113.476 174.693 112.974 170.841 112.974 167.622C112.974 164.251 112.595 161.769 112.08 161.769C111.147 161.769 110.891 163.709 111.028 169.731C111.095 172.688 110.976 172.966 110.343 171.324C109.394 168.854 109.229 161.951 109.987 156.324L110.56 152.074ZM63.3765 154.388L66.0574 154.946C73.0984 156.414 92.42 164.685 92.42 166.232C92.42 166.669 92.6603 166.729 85.7665 164.562C79.8174 162.692 77.155 162.551 79.9351 164.254C80.9088 164.85 80.6702 164.92 79.0153 164.523C75.7739 163.746 69.1134 159.843 66.0364 156.917L63.3765 154.388ZM197.888 168.593C197.854 168.614 197.829 168.637 197.814 168.667C197.828 168.64 197.853 168.623 197.882 168.61C197.883 168.604 197.885 168.598 197.888 168.593L197.888 168.593ZM197.799 168.745C197.802 168.795 197.806 168.828 197.813 168.849H197.814C197.816 168.84 197.82 168.819 197.823 168.811C197.81 168.789 197.801 168.768 197.801 168.745L197.799 168.745ZM197.247 171.411C197.247 171.413 197.247 171.416 197.247 171.419C197.248 171.416 197.247 171.415 197.249 171.412L197.247 171.411ZM172.89 186.094L172.886 186.096C172.889 186.097 172.891 186.097 172.894 186.099L172.89 186.094ZM172.894 186.099L172.937 186.15C172.941 186.153 172.948 186.157 172.951 186.16H172.953L172.955 186.161L172.956 186.163C172.972 186.171 172.984 186.176 173 186.185C172.973 186.158 172.945 186.13 172.913 186.11C172.911 186.109 172.914 186.108 172.911 186.107C172.909 186.106 172.907 186.104 172.904 186.104C172.902 186.102 172.897 186.101 172.893 186.099L172.894 186.099ZM173.127 186.339C173.143 186.353 173.16 186.367 173.176 186.382C173.173 186.376 173.171 186.369 173.164 186.36C173.174 186.372 173.187 186.388 173.197 186.402C173.189 186.392 173.183 186.382 173.175 186.371C173.187 186.381 173.193 186.395 173.204 186.407C173.202 186.405 173.199 186.404 173.197 186.402C173.19 186.396 173.183 186.388 173.173 186.382C173.183 186.397 173.191 186.412 173.201 186.425C173.19 186.416 173.177 186.406 173.166 186.401L173.164 186.402C173.161 186.4 173.16 186.397 173.157 186.394C173.159 186.396 173.164 186.396 173.167 186.399C173.161 186.385 173.144 186.364 173.127 186.338L173.127 186.339ZM173.258 186.569V186.57C173.293 186.594 173.33 186.619 173.367 186.642L173.346 186.615C173.332 186.598 173.276 186.574 173.258 186.569L173.258 186.569ZM173.651 187.094C173.658 187.198 173.658 187.297 173.658 187.323C173.66 187.305 173.664 187.247 173.677 187.133C173.67 187.121 173.662 187.106 173.655 187.094H173.651ZM177.781 189.142H177.782C177.793 189.158 177.806 189.173 177.817 189.188C177.81 189.181 177.81 189.181 177.81 189.184C177.8 189.172 177.791 189.157 177.781 189.142L177.781 189.142ZM177.917 189.222C177.951 189.268 178.04 189.405 178.041 189.405L178.043 189.404C178.003 189.343 177.963 189.283 177.924 189.222C177.921 189.222 177.92 189.222 177.917 189.222L177.917 189.222ZM345.763 191.803C345.762 191.817 345.76 191.831 345.758 191.845C345.764 191.82 345.765 191.788 345.763 191.803ZM117.765 202.013C119.227 202.122 125.232 204.828 127.717 206.616C129.192 207.676 131.125 209.664 132.013 211.034C134.068 214.204 132.834 214.234 129.457 211.093C127.851 209.599 126.233 208.803 125.262 209.03C124.197 209.278 122.663 208.29 120.561 206.005C118.845 204.139 117.44 202.397 117.44 202.136C117.44 202.035 117.556 201.997 117.765 202.013ZM59.7199 210.036C61.383 209.925 68.3476 211.838 73.3306 213.871C77.0131 215.373 78.1761 216.186 77.3171 216.659C76.6502 217.026 76.3812 217.726 76.7184 218.213C77.8288 219.813 72.4559 219.171 69.1137 217.303C65.0344 215.023 59.3535 210.897 59.3534 210.213C59.3534 210.109 59.4823 210.051 59.7199 210.036ZM117.814 220.422C118.936 220.303 118.251 221.131 115.042 223.079C112.719 224.489 112.184 225.142 113.208 225.318C114.003 225.455 115.683 224.965 116.941 224.231C118.199 223.497 119.228 223.163 119.228 223.491C119.228 224.393 115.474 227.138 113.138 227.942C111.098 228.644 100.461 228.963 100.461 228.323C100.461 228.141 102.974 226.746 106.046 225.222C111.942 222.296 116.371 220.576 117.814 220.422Z" fill="#6F917C"/>
<path d="M227.982 4.31748C227.29 4.35077 226.556 4.69281 225.978 5.39519C225.289 6.2327 224.241 6.96599 223.65 7.02498C223.058 7.08398 222.043 7.17348 221.393 7.22403C220.743 7.27459 220.349 7.94282 220.519 8.70919C220.695 9.50438 220.052 10.4543 219.021 10.9221C216.12 12.2381 216.912 13.9497 221.328 15.9033L223.587 16.9032C225.512 16.958 227.437 17.0027 229.364 16.995C230.06 17.0923 230.62 17.1717 231.12 17.2547C231.757 17.1243 232.405 16.9943 233.075 16.8286C236.406 16.0044 237.466 14.1698 235.608 12.4508C235.158 12.0348 234.655 10.7993 234.489 9.70448C234.257 8.17933 233.716 7.75828 232.178 7.90363C230.689 8.04426 230.171 7.67775 230.171 6.48534C230.171 5.06424 229.135 4.26206 227.982 4.31748ZM287.439 12.356C286.649 12.3021 285.617 12.8318 284.451 13.9531C282.82 15.5208 282.051 15.7641 280.761 15.121C279.56 14.5222 278.785 14.6175 277.81 15.4865C276.642 16.5272 276.705 17.0475 278.351 19.9217C278.988 21.0351 279.465 22.0162 279.801 22.8003C280.854 23.9139 281.917 25.0185 283.014 26.0972C284.044 26.1504 285.556 26.3264 287.203 26.6166C291.23 27.326 292.175 27.2583 293.398 26.1687C294.726 24.9851 294.722 24.7641 293.339 23.4021C291.921 22.0061 291.961 21.8174 294.068 20.0539C295.296 19.026 296.3 17.4836 296.3 16.6264C296.3 15.2715 295.841 15.1234 292.776 15.4896C289.712 15.8558 289.216 15.695 288.979 14.2626C288.777 13.0472 288.229 12.4099 287.439 12.356ZM120.751 35.3829C120.56 35.3678 120.378 35.368 120.198 35.3909V35.3893C119.478 35.4696 118.797 35.8373 117.739 36.5385C114.855 38.4497 114.264 40.9827 116.117 43.5024C117.37 45.2058 117.34 45.4754 115.74 46.7651C113.442 48.6183 113.527 51.7556 115.939 54.0431L117.884 55.886H115.992C113.893 55.886 111.316 58.6323 111.316 60.8686C111.316 61.6625 111.968 63.1959 112.763 64.2775C113.725 65.5859 113.923 66.5758 113.356 67.2353C112.143 68.6473 112.143 77.5446 113.354 78.8475C113.913 79.4478 115.301 80.2538 116.438 80.6391C118.155 81.2207 118.403 81.7141 117.899 83.5425C117.566 84.7538 116.351 86.5328 115.199 87.4972C111.128 90.9046 113.489 96.4937 119.001 96.4937C120.743 96.4937 120.885 96.8201 120.489 99.9476C120.099 103.036 120.324 103.588 122.61 105.139C124.017 106.093 126.463 107.942 128.047 109.247C129.631 110.553 131.284 111.622 131.719 111.622C131.771 111.622 131.862 111.773 131.938 111.868C132.136 111.861 132.334 111.856 132.531 111.841C133.401 111.775 134.269 111.683 135.137 111.596C135.154 111.257 135.215 111.029 135.359 110.986C138.048 110.187 139.208 108.091 138.79 104.789C138.424 101.897 138.65 101.291 140.405 100.455C142.796 99.3141 143.668 97.0214 142.633 94.5964C142.105 93.3578 142.373 92.3432 143.585 91.0103C144.514 89.988 145.274 88.5553 145.274 87.8254C145.274 85.7927 142.69 82.9593 140.836 82.9593C137.417 82.9593 133.322 71.2009 135.931 68.876C138.048 66.9898 137.584 62.5004 135.125 61.0646C133.553 60.1468 133.129 59.3172 133.454 57.7988C133.736 56.4872 133.214 54.9489 131.986 53.4693C130.939 52.2069 130.082 50.4541 130.082 49.5737C130.082 48.6932 128.908 47.1988 127.473 46.2534C125.221 44.7704 124.992 44.2845 125.799 42.7062C127.224 39.9196 126.015 37.1187 122.888 35.9647C121.979 35.6293 121.325 35.4283 120.751 35.383L120.751 35.3829ZM180.28 55.9605C179.316 55.8701 177.952 56.6675 176.157 58.3616C174.015 60.3836 173.57 61.4433 173.733 64.1343C174.037 69.1436 174.63 70.1406 177.727 70.8509C178.172 70.9531 178.475 71.0675 178.802 71.1806C180.306 71.2773 181.811 71.3557 183.317 71.4278C183.477 71.2028 183.702 71.0288 184.012 70.8742C186.788 69.49 188.169 67.6657 188.169 65.383C188.169 64.1006 187.767 63.0519 187.276 63.0519C186.784 63.0519 186.382 61.977 186.382 60.6632C186.382 58.6746 186.024 58.2745 184.244 58.2745C183.068 58.2745 181.874 57.737 181.591 57.0802C181.293 56.3881 180.859 56.0147 180.28 55.9605ZM240.711 90.8702C240.721 90.8741 240.153 91.2881 239.898 91.4378C240.485 91.0188 240.705 90.8679 240.711 90.8702ZM239.889 107.89C239.427 107.952 238.922 108.263 238.198 108.848C237.224 109.633 236.426 110.83 236.426 111.507C236.426 112.464 236.189 112.524 235.354 111.781C234.765 111.255 233.507 110.826 232.562 110.826C231.028 110.826 230.891 111.276 231.284 115.006C231.488 116.934 231.847 118.761 232.162 119.794C232.43 120.011 232.659 120.194 232.974 120.447C233.549 120.929 234.072 121.409 234.59 121.883C235.093 122.213 236.572 123.368 237.61 124.531C238.586 124.838 239.327 125.061 240.442 125.427C244.627 126.8 247.554 125.952 246.719 123.609C246.335 122.53 246.784 122.027 248.464 121.651C251.237 121.031 251.6 118.046 248.977 117.435C247.349 117.056 247.327 116.899 248.63 115.127C251.247 111.569 249.276 110.169 244.246 112.014C243.065 112.447 242.682 112.2 242.682 111.008C242.682 110.139 242.072 108.977 241.326 108.425C240.77 108.014 240.351 107.827 239.889 107.89ZM243.996 168.95C243.349 168.95 241.645 169.831 240.21 170.907C238.435 172.238 237.309 172.603 236.688 172.05C235.75 171.214 233.374 172.731 232.668 174.617C232.416 175.292 231.832 175.263 230.473 174.507C225.196 171.571 223.895 177.514 228.764 182.315L231.825 185.334L231.743 185.447C231.847 185.537 231.953 185.625 232.057 185.713C232.262 185.835 232.457 185.972 232.661 186.094C232.837 186.21 233.004 186.335 233.173 186.458L233.251 186.34L237.039 186.845C238.494 187.04 239.782 186.972 240.935 186.794C241.97 185.856 243.07 184.908 244.249 183.925C244.054 183.543 243.76 183.201 243.352 183.079C242.738 182.894 243.567 182.127 245.195 181.374C248.704 179.752 248.943 176.685 245.595 176.261C243.688 176.02 243.657 175.898 244.919 173.723C246.346 171.264 245.899 168.95 243.996 168.95V168.95Z" fill="#D1BE5E" fill-opacity="0.666334"/>
</svg>
