<svg width="199" height="190" viewBox="0 0 199 190" fill="none" xmlns="http://www.w3.org/2000/svg">
<path d="M82.0148 189.874C81.4727 189.762 78.3678 189.044 75.1149 188.277C38.706 179.699 9.95487 151.105 2.15514 115.718C-0.970288 101.538 -0.684718 85.6152 2.93634 72.1604C5.45512 62.8013 9.67478 53.0565 14.0679 46.4533C14.9803 45.0819 15.7268 43.8496 15.7268 43.7148C15.7268 43.1424 22.3995 34.9224 25.6972 31.4326C29.4817 27.4276 35.8372 21.7794 39.1371 19.4884C48.5447 12.9569 56.647 8.73362 65.9973 5.48756C95.3017 -4.6858 129.698 -0.511699 155.336 16.3291C166.461 23.6373 174.883 31.7556 182.33 42.3513C192.9 57.3904 198.341 73.8358 198.925 92.5064C199.208 101.545 198.71 107.661 197.079 115.193C193.321 132.547 184.006 149.513 171.576 161.642C169.933 163.246 168.737 164.717 168.918 164.912C169.1 165.106 169.007 165.133 168.711 164.971C168.415 164.81 167.417 165.433 166.493 166.356C164.351 168.498 157.93 173.288 153.478 176.067C143.713 182.161 132.488 186.596 120.054 189.273C117.664 189.788 115.502 190.086 115.249 189.936C114.972 189.771 114.789 176.44 114.789 156.34V123.017L126.491 122.89L138.192 122.764L138.77 119.451C139.716 114.031 142.396 96.7859 142.392 96.1469C142.389 95.6879 139.289 95.5554 128.543 95.5554H114.697L114.891 84.5539C115.057 75.1674 115.221 73.2398 116.006 71.423C117.539 67.8786 119.496 65.8947 123.077 64.2537C126.312 62.7713 126.515 62.7422 135.118 62.5254L143.867 62.305V50.8302V39.3553L140.048 38.8332C137.947 38.546 133.123 38.076 129.328 37.7888C117.817 36.9175 110.422 37.9419 102.961 41.4416C96.8376 44.3135 91.324 49.4543 88.5382 54.889C84.9416 61.9054 84.5813 64.1331 84.352 80.7684L84.1481 95.5554H71.6321H59.1162L58.833 96.6387C58.6773 97.2345 58.6176 103.356 58.7004 110.243L58.8509 122.764L71.545 122.89L84.2392 123.016L84.1127 156.447C84.0302 178.253 83.8148 189.912 83.4933 189.977C83.2223 190.032 82.5569 189.986 82.0148 189.874L82.0148 189.874Z" fill="#70917C"/>
</svg>
