<svg width="199" height="167" viewBox="0 0 199 167" fill="none" xmlns="http://www.w3.org/2000/svg">
<path d="M45.8423 166.822C36.686 166.427 30.4587 165.26 24.3801 162.798C15.9848 159.399 9.11445 153.642 5.04809 146.599C2.1168 141.521 0.763939 136.504 0.22425 128.709C-0.0733778 124.41 -0.0753792 41.8278 0.222043 37.6608C0.886262 28.3548 3.0946 22.1732 7.89114 16.1934C15.0038 7.32616 26.0765 1.86419 39.5497 0.576875C45.0171 0.0544728 50.6945 0 99.6665 0C156.338 0 157.558 0.0234221 164.615 1.24924C181.681 4.21338 194.413 14.9152 197.854 29.1868C199.053 34.1616 199 31.6488 199 83.4203C199 129.078 198.977 131.859 198.591 134.233C197.761 139.326 196.213 143.567 193.701 147.626C191.694 150.866 189.751 153.039 186.195 156.019C182.573 159.054 180.018 160.645 175.964 162.391C169.456 165.194 163.702 166.35 153.828 166.838C149.268 167.064 51.1043 167.049 45.8423 166.821V166.822ZM131.579 145.018C143.805 144.157 152.177 141.587 158.974 136.608C167.513 130.353 171.644 122.58 172.831 110.537C173.455 104.215 173.451 62.8826 172.826 56.3977C172.155 49.4227 170.603 44.381 167.637 39.5431C164.244 34.0078 158.199 29.0099 151.467 26.1726C145.859 23.8089 139.876 22.5787 131.129 21.9904C125.989 21.6447 72.8803 21.6453 67.7533 21.9911C53.9363 22.923 45.3839 25.8017 37.9764 32.0138C33.5243 35.7475 30.6804 39.6651 28.652 44.8588C25.9967 51.6579 25.6163 56.4438 25.6167 83.0438C25.6172 105.412 25.8368 110.785 26.9875 116.563C29.3888 128.621 38.0237 137.857 50.8982 142.138C56.5593 144.02 62.4737 144.857 72.9223 145.255C77.4474 145.427 128.707 145.22 131.578 145.018L131.579 145.018ZM75.7322 134.326C70.9621 134.179 65.1973 133.844 63.2693 133.602C56.4943 132.749 51.305 130.696 47.2327 127.255C44.1751 124.671 42.3421 122.131 41.0358 118.666C39.0874 113.498 38.8689 110.591 38.7197 87.8456C38.5059 55.2503 39.0476 50.3603 43.6283 43.5419C44.917 41.6237 49.2902 37.9126 51.5731 36.8C55.447 34.912 60.0736 33.7256 65.4222 33.2486C70.921 32.7583 80.0556 32.5782 99.4418 32.578C117.5 32.5778 127.341 32.7468 132.478 33.1454C141.131 33.8168 146.949 35.8219 151.654 39.7547C155.727 43.1587 158.14 47.4228 159.209 53.1023C159.913 56.8482 160.057 60.8667 160.168 79.8424C160.305 103.367 160.042 110.62 158.878 115.445C156.517 125.232 149.236 131.333 137.549 133.318C132.129 134.239 124.278 134.459 98.5428 134.414C86.924 134.395 76.6592 134.354 75.7322 134.326V134.326ZM104.398 114.965C110.612 114.321 116.85 112.216 122.074 109.002C124.441 107.545 128.505 104.098 130.15 102.151C134.9 96.5285 137.31 90.2555 137.31 83.5145C137.31 75.352 133.694 67.6956 127.041 61.7699C115.208 51.2312 96.3998 48.7491 81.2028 55.7209C76.5546 57.8533 71.7089 61.4398 68.7077 64.9691C66.9336 67.0553 64.3029 71.379 63.4966 73.534C60.2358 82.2484 61.1765 90.8873 66.2393 98.7212C70.9624 106.029 79.366 111.69 88.9062 113.99C90.7808 114.442 93.8069 114.94 95.7337 115.114C97.7145 115.292 101.944 115.22 104.398 114.965V114.965ZM96.1522 104.134C92.0774 103.59 87.6287 102.061 84.7101 100.202C72.7768 92.6011 71.2785 78.3498 81.4627 69.3132C88.8778 62.7335 100.353 60.9104 110.051 64.7713C112.652 65.8071 114.423 66.8557 116.69 68.704C121.286 72.45 123.839 77.1679 124.2 82.5836C124.436 86.1252 123.485 89.7279 121.437 93.0517C118.198 98.3066 112.232 102.252 105.388 103.665C102.769 104.206 98.3637 104.429 96.1522 104.134ZM141.494 57.5315C142.109 57.3783 143.161 56.932 143.832 56.5397C149.421 53.2679 148.701 46.2658 142.524 43.8137C141.161 43.2727 140.815 43.216 138.883 43.216C136.951 43.216 136.605 43.2728 135.242 43.8137C129.062 46.2668 128.345 53.268 133.938 56.5421C134.611 56.9357 135.619 57.3761 136.179 57.5208C137.535 57.871 140.109 57.8762 141.494 57.5316V57.5315Z" fill="#DFD494"/>
</svg>
