<svg width="453" height="166" viewBox="0 0 453 166" fill="none" xmlns="http://www.w3.org/2000/svg">
<path d="M428.927 163.549C426.687 161.262 424.662 156.59 424.662 153.711C424.662 148.363 432.102 142.6 439.006 142.6C445.539 142.6 451.073 148.351 450.611 154.66C450.448 156.875 449.941 157.866 448.754 158.284C447.265 158.808 447.144 158.574 447.387 155.627C447.585 153.219 447.156 151.695 445.708 149.652C443.866 147.057 443.515 146.911 439.147 146.928C433.985 146.947 430.757 148.645 428.876 152.327C427.422 155.173 428.189 157.675 431.636 161.336C433.979 163.824 434.254 164.448 433.182 164.842C431.186 165.577 430.797 165.459 428.927 163.549ZM15.0961 162.015C6.54866 159.107 3.29984 151.083 8.13173 144.813C9.04251 143.631 9.7877 142.529 9.7877 142.364C9.7877 142.199 7.58265 141.424 4.8876 140.642C2.19255 139.859 -0.00686303 138.833 1.60931e-05 138.363C0.0431304 135.411 1.38249 135.593 17.4301 140.733C32.1108 145.434 33.5401 146.05 33.3129 147.58C33.1575 148.625 32.5606 149.182 31.7328 149.052C30.6191 148.877 30.4699 149.418 30.8166 152.369C31.3372 156.8 29.8544 160.35 26.8635 161.834C24.2247 163.143 18.6639 163.228 15.0961 162.015V162.015ZM26.4834 157.313C27.7908 155.522 28.1966 149.927 27.1297 148.403C26.7997 147.931 23.6015 146.608 20.0226 145.461C13.6816 143.43 13.4768 143.414 11.9983 144.832C11.1638 145.633 10.2777 147.743 10.0292 149.52C9.21635 155.334 13.5475 158.961 21.3791 159.024C24.4357 159.047 25.4695 158.701 26.4834 157.313ZM417.235 140.895C416.699 139.935 416.589 139.039 416.99 138.904C417.392 138.769 422.314 136.232 427.928 133.266C437.912 127.993 438.158 127.911 439.082 129.54C440.123 131.373 441.428 130.489 424.906 139.136L418.208 142.641L417.235 140.895ZM26.1213 133.179C20.5066 130.623 15.9496 128.171 15.9945 127.73C16.1981 125.734 16.3702 125.363 17.0909 125.363C18.767 125.363 38.7747 134.776 38.6982 135.528C38.4902 137.576 38.3049 137.897 37.3507 137.864C36.7892 137.845 31.736 135.736 26.1213 133.179ZM410.924 130.342C410.228 129.149 411.034 128.321 416.328 124.786C424.234 119.506 426.295 117.631 426.295 115.721C426.295 113.854 421.019 108.909 419.027 108.909C418.238 108.909 414.431 111.025 410.569 113.61C406.706 116.196 403.191 118.311 402.758 118.311C401.427 118.311 400.855 115.738 401.969 114.763C402.547 114.257 406.984 111.259 411.829 108.102C420.26 102.608 420.698 102.422 422.037 103.771C423.068 104.808 423.167 105.275 422.416 105.542C420.741 106.138 421.246 107.093 423.764 108.093C427.153 109.44 429.555 112.181 430.084 115.304C430.674 118.797 428.487 121.363 420.277 126.808C412.744 131.804 411.952 132.104 410.924 130.342H410.924ZM48.7403 129.976C47.3961 129.227 47.5546 128.856 50.5502 125.739C52.3558 123.859 54.0699 121.417 54.3592 120.311C54.9524 118.043 53.2256 114.947 50.6218 113.61C49.2333 112.897 48.9884 113.014 48.9884 114.391C48.9884 116.835 46.9511 121.016 44.841 122.902C41.3829 125.992 32.5158 124.497 28.3983 120.129C27.6294 119.313 26.4245 117.324 25.7207 115.708C24.0786 111.937 25.126 107.767 28.4923 104.673C29.8106 103.461 31.1098 101.627 31.3792 100.596C31.6487 99.5663 32.2111 98.7234 32.6291 98.7234C34.294 98.7234 53.2753 110.883 55.6347 113.461C57.824 115.854 58.1027 116.656 57.7596 119.576C57.5097 121.703 56.3482 124.295 54.5967 126.634C51.4943 130.778 50.8443 131.149 48.7403 129.976ZM43.8842 118.596C45.1185 117.293 45.7217 115.671 45.7217 113.654C45.7217 110.802 45.4498 110.488 40.3041 107.392C37.3244 105.6 34.3054 104.241 33.5952 104.372C31.7365 104.716 28.5714 109.555 28.5714 112.053C28.5714 114.935 31.4167 118.204 35.449 119.954C39.3053 121.628 41.3188 121.303 43.8842 118.596ZM448.132 128.551C445.993 128.265 443.654 127.466 442.934 126.775C441.732 125.622 442.009 125.496 446.296 125.245C450.693 124.987 451.035 125.098 452.127 127.126C452.766 128.311 453.003 129.234 452.654 129.176C452.306 129.118 450.271 128.837 448.132 128.551ZM8.27418 125.451C7.41216 124.927 7.37356 124.412 8.09875 123.112C9.11678 121.287 9.63735 121.13 11.3043 122.143C11.9996 122.566 12.2073 123.437 11.8618 124.482C11.2797 126.241 10.0991 126.56 8.27418 125.451ZM393.134 105.692C390.098 104.87 386.43 101.536 385.764 98.9925C385.5 97.9826 384.818 97.1564 384.248 97.1564C383.678 97.1564 382.787 96.6661 382.269 96.0668C381.508 95.1873 383.707 92.8838 393.677 84.1182C400.47 78.1457 406.5 73.1537 407.076 73.0247C407.651 72.8956 408.381 73.4249 408.697 74.2C409.131 75.264 408.254 76.4742 405.124 79.1355C400.767 82.8404 400.156 83.8365 402.244 83.8365C408.071 83.8365 412.619 91.4654 409.864 96.6203C406.426 103.052 398.753 107.213 393.134 105.692ZM403.224 98.4035C407.558 94.025 407.847 91.1738 404.249 88.2697C400.325 85.1018 398.724 84.9505 395.797 87.4709C386.785 95.2317 387.077 94.8503 388.346 97.2059C391.836 103.679 397.546 104.139 403.224 98.4035ZM51.8341 98.8789C48.2337 95.9924 44.0088 92.6723 42.4454 91.501C39.8013 89.52 39.6971 89.2808 40.9532 88.0758C42.5368 86.5564 41.7497 86.1098 53.3096 95.0874C57.6706 98.4742 61.2386 101.489 61.2386 101.786C61.2386 102.452 59.4464 104.223 58.8294 104.168C58.5824 104.144 55.4345 101.765 51.8341 98.8789ZM58.1019 86.6024C53.5186 82.4014 51.4667 80.9889 50.8319 81.598C49.4863 82.8889 48.1056 81.6218 48.6387 79.5824C49.0023 78.1924 48.5234 77.3329 46.5663 75.8634C44.1047 74.0152 44.071 73.9089 45.5412 72.6324C46.9801 71.3831 47.1874 71.4385 49.4127 73.6669L51.7639 76.0214L55.1434 72.8394C58.156 70.0027 58.64 69.7928 59.6026 70.9055C60.5299 71.9775 60.2579 72.5708 57.6758 75.1077L54.6692 78.0617L60.3246 83.2997C66.6973 89.2022 69.027 89.8509 71.7825 86.4901C72.8056 85.2422 73.9452 84.6206 74.7001 84.8985C76.6006 85.5982 76.1981 86.8788 73.1622 89.7914C71.0296 91.8374 69.7013 92.4554 67.4365 92.4554C64.882 92.4554 63.6332 91.6724 58.1019 86.6024ZM372.803 87.31C366.638 84.2453 362.744 78.3487 363.809 73.6936C364.539 70.5054 368.608 65.3302 371.521 63.8851C374.972 62.1731 380.244 62.3657 383.547 64.3243C388.95 67.5277 390.245 73.4952 386.643 78.5817L384.558 81.5256L378.436 76.6674C375.069 73.9953 372.126 71.5184 371.897 71.163C370.48 68.9628 367.494 72.4938 367.494 76.3699C367.494 79.9228 373.928 85.4037 378.099 85.4037C379.549 85.4037 379.672 85.6367 378.928 86.9708C377.879 88.8501 376.099 88.9487 372.803 87.31V87.31ZM385.461 72.3383C385.461 71.3502 384.438 69.443 383.188 68.1003C381.392 66.1722 380.257 65.6591 377.786 65.6591C376.065 65.6591 374.118 66.1765 373.459 66.8091C372.405 67.8201 372.928 68.5027 377.786 72.4567C382.909 76.6261 383.391 76.8516 384.387 75.5447C384.978 74.7693 385.461 73.3265 385.461 72.3383ZM34.7492 85.9294C33.519 85.0664 33.4272 84.5965 34.2135 83.187C35.3213 81.2011 36.1643 81.054 37.5115 82.6114C38.234 83.4466 38.2524 84.1533 37.5828 85.3536C36.5149 87.268 36.6254 87.2456 34.7492 85.9294H34.7492ZM76.572 80.2965C73.7451 78.7845 72.6722 76.8465 72.6722 73.2525C72.6722 70.8512 73.4127 69.6557 77.3581 65.6874C81.8239 61.1955 81.9699 60.9224 80.4687 59.8692C77.7438 57.9576 75.7566 58.6318 71.4021 62.945C67.4261 66.8833 67.1232 67.0369 66.1827 65.5922C65.3113 64.2535 65.5826 63.6636 68.3157 60.9549C74.6914 54.6361 79.6168 53.8969 84.2188 58.5682C88.1568 62.5654 94.7226 70.5168 94.7226 71.2884C94.7226 72.1681 92.4838 72.896 91.2149 72.4288C90.5672 72.1906 89.5898 73.2734 88.6934 75.2226C86.3347 80.3517 80.9159 82.6199 76.572 80.2965ZM84.7624 75.2509C88.3668 71.7929 88.6813 69.4579 85.9803 66.2104L83.7312 63.5061L80.9904 66.0321C78.2684 68.5408 75.9389 72.0363 75.9389 73.6121C75.9389 74.9816 79.1018 77.5686 80.7762 77.5686C81.64 77.5686 83.4338 76.5256 84.7624 75.2509ZM350.54 71.2141C346.499 69.2949 344.164 66.4841 343.431 62.6553C343.029 60.5593 343.433 58.9559 345.198 55.6309C350.075 46.4456 358.944 45.0861 366.203 52.4113C368.374 54.6022 368.496 55.0082 367.571 56.9567L366.555 59.0963L364.892 56.3056C361.813 51.1368 356.493 49.5365 352.473 52.57C349.818 54.5735 347.077 59.5345 347.077 62.3362C347.077 65.1748 351.17 68.6811 355.256 69.3435C358.691 69.9003 359.127 70.3957 357.531 71.9272C356.136 73.2655 354.511 73.0998 350.54 71.2141ZM93.8755 54.2777C89.2608 47.48 84.966 41.1502 84.3315 40.2114C83.2922 38.6738 83.3462 38.4182 84.8765 37.6325C86.4519 36.8236 87.2612 37.7625 96.0266 50.5686C101.225 58.1631 105.355 64.4477 105.205 64.5343C105.054 64.6211 104.331 65.1296 103.599 65.6645C102.432 66.5159 101.221 65.0975 93.8755 54.2777ZM331.147 59.2494C330.339 58.6822 329.939 57.812 330.259 57.3157C330.665 56.6847 329.708 56.4133 327.076 56.4133C320.986 56.4133 316.872 53.3231 316.855 48.7371C316.846 46.7568 325.176 30.5552 326.194 30.5692C329.3 30.6121 329.123 31.9684 324.935 40.2337C320.086 49.8004 320.154 51.6072 325.424 53.2757C330.708 54.9488 331.951 54.0659 336.468 45.4291C338.718 41.128 340.831 37.6143 341.164 37.6209C341.497 37.6256 342.316 37.9653 342.986 38.3711C344.006 38.99 343.346 40.7733 338.902 49.3976C335.987 55.0561 333.38 59.8197 333.11 59.9833C332.839 60.1467 331.956 59.8165 331.147 59.2494ZM107.105 49.1658C101.465 38.9287 101.41 38.7714 103.158 37.8664C104.594 37.1231 105.064 37.1745 105.628 38.137C106.193 39.1011 106.609 38.8758 107.835 36.9427C111.146 31.7183 117.628 30.1569 121.17 33.7306C122.216 34.7864 124.967 39.0732 127.283 43.2567C131.491 50.8579 131.492 50.8639 129.685 51.7919C128.69 52.3027 127.758 52.4056 127.614 52.0206C125.992 47.6837 119.167 37.0273 117.403 36.0774C115.391 34.994 115.034 35.028 112.982 36.4985C111.754 37.3782 110.039 39.0097 109.172 40.1242L107.595 42.1504L111.938 50.1187C115.522 56.6929 116.075 58.2127 115.098 58.8054C114.447 59.2004 113.669 59.5292 113.37 59.5358C113.07 59.5406 110.251 54.8761 107.105 49.1662V49.1658ZM66.3189 52.3082C65.6033 48.8636 65.6731 47.9611 66.7439 46.8152C67.4486 46.0611 68.3358 45.444 68.7153 45.444C69.9025 45.444 69.5187 54.5643 68.2904 55.5422C67.3845 56.2635 67.0146 55.6566 66.3189 52.3082ZM144.863 49.7093L145.412 44.5723L136.658 35.4667C128.229 26.6999 127.974 26.3312 129.79 25.5536C131.508 24.8182 132.271 25.363 138.313 31.6416C141.962 35.4341 145.224 38.2695 145.561 37.9424C145.898 37.6151 146.178 34.674 146.183 31.406C146.195 23.6188 146.901 19.7883 148.431 19.2252C149.115 18.9737 149.852 18.9384 150.07 19.1471C150.87 19.9149 148.381 53.6713 147.482 54.2467C144.881 55.9104 144.307 54.9158 144.863 49.7094V49.7093ZM365.177 46.5422C363.697 45.5473 363.411 44.5863 363.411 40.6026C363.411 36.4668 363.57 35.9766 364.636 36.8254C365.31 37.3618 365.866 38.5509 365.872 39.4677C365.877 40.3846 366.094 41.8876 366.351 42.8079C366.801 44.4157 366.941 44.4353 369.928 43.3096C372.143 42.4748 373.46 42.3658 374.511 42.9304C375.784 43.6138 375.432 43.9659 371.944 45.4967C369.721 46.4725 367.687 47.3741 367.423 47.5002C367.16 47.6264 366.149 47.1953 365.177 46.5424V46.5422ZM288.934 42.5618C288.173 42.3693 287.733 41.755 287.956 41.1967C288.267 40.4193 287.398 40.2704 284.245 40.561C278.831 41.0602 275.672 39.7351 273.943 36.2392C271.444 31.188 273.849 22.0005 278.551 18.6325C282.476 15.8208 286.615 16.038 293.36 19.4095C293.686 19.5725 294.573 17.5635 295.331 14.9456C296.67 10.3264 297.428 9.56528 299.458 10.8032C300.187 11.2482 299.948 13.0583 298.503 18.0387C297.443 21.6919 295.397 28.8237 293.957 33.8871C292.517 38.9506 291.109 43.0526 290.828 43.0026C290.548 42.9526 289.695 42.7544 288.934 42.5619V42.5618ZM288.139 36.9235C289.008 36.3946 293.505 23.3797 292.925 23.0698C292.839 23.0222 291.859 22.3977 290.749 21.6787C287.701 19.706 282.42 19.9702 280.232 22.2048C276.696 25.8163 275.732 33.4094 278.476 36.0418C280.193 37.6892 286.007 38.2197 288.139 36.9235ZM261.53 36.2145C260.519 36.0596 259.692 35.4372 259.692 34.8315C259.692 33.9729 259.23 33.8986 257.597 34.4941C254.45 35.6421 249.266 35.4143 247.066 34.0315C244.377 32.3413 243.271 28.9683 244.269 25.5017C245.378 21.6471 248.303 20.3717 256.031 20.3717H262.251L261.993 18.2352C261.651 15.4085 258.845 14.1296 252.955 14.1151C248.807 14.1055 248.259 13.9207 248.259 12.5365C248.259 11.1426 248.803 10.9694 253.185 10.9694C259.068 10.9694 263.136 12.4383 265.062 15.2578C266.4 17.218 266.401 17.827 265.066 26.8709C264.292 32.1204 263.593 36.4336 263.513 36.4558C263.433 36.4796 262.54 36.3695 261.53 36.2147L261.53 36.2145ZM259.805 30.7627C260.263 30.3229 260.834 28.5618 261.073 26.8487L261.509 23.7339L258.234 23.2315C253.802 22.5516 250.081 23.3731 248.638 25.3505C247.018 27.5688 247.131 28.6919 249.17 30.6482C250.6 32.02 251.595 32.2419 254.935 31.9341C257.155 31.7292 259.347 31.2022 259.805 30.7627ZM180.354 35.5172C179.115 35.2013 177.668 32.2049 178.41 31.4927C178.587 31.3231 180.082 31.6123 181.733 32.1349C185.313 33.2686 189.889 32.7012 192.009 30.861C193.944 29.1807 193.93 28.5797 191.908 26.6396C190.775 25.5528 189.185 25.0726 186.721 25.0726C181.419 25.0726 178.337 23.7703 177.154 21.0308C174.788 15.5504 179.844 10.9693 188.258 10.9693C192.849 10.9693 193.399 11.1431 193.843 12.7322C194.618 15.5051 194.489 15.6793 192.263 14.8675C187.16 13.0061 180.474 14.7655 180.474 17.9694C180.474 20.1816 182.057 20.919 188.101 21.5214C194.644 22.1737 196.808 23.7112 196.808 27.7092C196.808 29.1594 196.098 31.2119 195.23 32.2704C192.823 35.2062 185.449 36.8156 180.354 35.5172H180.354ZM204.643 28.0108C204.389 25.3175 204.079 17.9132 203.954 11.5569C203.732 0.245887 203.764 0 205.454 0C207.047 0 207.221 0.553999 207.711 7.17205C208.003 11.1167 208.247 15.9647 208.254 17.9454L208.267 21.5467L214.449 15.0827C218.919 10.4093 221.178 8.6187 222.603 8.6187C223.688 8.6187 224.575 8.89311 224.575 9.229C224.575 9.56488 222.185 12.1118 219.264 14.8895L213.953 19.9397L220.081 25.8534C223.451 29.106 226.208 32.0238 226.208 32.3375C226.208 32.651 225.187 32.9078 223.939 32.9078C222.231 32.9078 220.373 31.653 216.428 27.8335C211.5 23.064 211.097 22.8361 209.713 24.0374C208.681 24.9337 208.241 26.4492 208.241 29.1116C208.241 32.333 208.004 32.9078 206.673 32.9078C205.343 32.9078 205.035 32.1641 204.643 28.0108H204.643ZM232.209 27.6192C232.481 24.7104 232.947 17.3061 233.245 11.1653L233.788 0.000145395H235.832H237.875L237.367 7.63943C237.087 11.8411 236.615 19.2453 236.317 24.0933C235.781 32.8216 235.756 32.9079 233.745 32.9079C231.733 32.9079 231.719 32.8579 232.209 27.6192Z" fill="black"/>
</svg>
