<svg width="185" height="297" viewBox="0 0 185 297" fill="none" xmlns="http://www.w3.org/2000/svg">
<path d="M29.0103 141.668C28.8448 141.504 28.7093 140.911 28.7093 140.351C28.7093 139.574 29.1841 139.123 30.7024 138.46C34.9033 136.624 34.8106 133.46 30.2255 122.185C29.1433 119.524 28.2578 116.865 28.2578 116.275C28.2578 113.501 26.3012 116.61 25.7585 120.248C25.568 121.525 24.1859 124.831 22.3419 128.421L19.2452 134.45L19.5244 137.712L19.8036 140.975L13.5702 141.305C7.8432 141.608 7.28808 141.569 6.73687 140.824C5.82339 139.59 6.90177 138.363 9.4654 137.72C10.6476 137.424 12.2021 136.752 12.9199 136.228C13.6377 135.704 14.4195 135.275 14.6574 135.275C15.297 135.275 18.2609 126.671 20.5725 118.103C21.6733 114.024 21.646 114.103 24.4225 106.993C26.5705 101.493 26.5776 100.956 24.5026 100.939C23.9287 100.934 23.7567 100.697 23.9305 100.151C25.4371 95.4189 26.3874 91.8469 26.63 90.0047C26.923 87.7793 26.9197 87.7719 25.0437 86.4739C24.0097 85.7584 21.8967 84.0023 20.3482 82.5713C18.7996 81.1403 17.3665 79.9694 17.1634 79.9694C16.9603 79.9694 16.2362 80.4974 15.5544 81.1427L14.3147 82.3161L12.48 80.8806C11.4709 80.0911 10.7511 79.2759 10.8805 79.0691C11.0099 78.8623 10.8779 78.5478 10.5871 78.3703C10.257 78.1687 10.1795 78.2409 10.3807 78.5625C10.5579 78.8457 10.5192 79.0774 10.2947 79.0774C9.71765 79.0774 8.33712 77.4963 8.64693 77.1903C8.78818 77.0507 8.56323 76.9667 8.14702 77.0035C7.73081 77.0403 6.98857 76.5476 6.4976 75.9087C5.7788 74.9734 5.59185 73.9744 5.53781 70.7796C5.45259 65.7421 6.06461 60.4131 6.62882 61.2799C6.8964 61.691 6.94633 61.4413 6.77423 60.5526C6.52381 59.2594 8.38116 52.9343 9.18553 52.341C9.36993 52.205 9.58758 51.7926 9.66921 51.4247C9.93877 50.2095 11.622 47.8464 12.0374 48.1C12.2617 48.2369 12.3388 48.075 12.2087 47.7401C12.0786 47.4052 12.3857 46.7616 12.8911 46.3098C13.874 45.4311 14.1912 45.9608 13.2456 46.9018C12.793 47.3522 12.8449 47.4018 13.5078 47.1525C14.0769 46.9384 14.2573 46.551 14.0872 45.9084C13.7753 44.7299 15.8436 42.4476 16.8706 42.8369C17.3503 43.0187 17.4608 42.9274 17.2223 42.5461C16.8801 41.9991 17.5681 41.1798 19.4595 39.8817C19.953 39.5431 19.6526 39.9301 18.7921 40.7417C17.8624 41.6187 17.4486 42.2902 17.7722 42.3968C18.1617 42.525 18.1134 42.7771 17.6027 43.2816C17.1038 43.7745 16.7941 43.8363 16.5754 43.4866C16.372 43.1616 16.0443 43.3317 15.6408 43.9718C15.0732 44.8722 15.0843 44.9045 15.7692 44.3454C16.3321 43.8858 16.519 43.8708 16.519 44.2852C16.519 44.6711 16.8701 44.6098 17.6869 44.0811C18.3292 43.6654 18.9726 43.4416 19.1166 43.5838C19.2606 43.7261 19.1414 43.8425 18.8517 43.8425C18.562 43.8425 18.3249 44.177 18.3249 44.5858C18.3249 44.9947 18.1966 45.2024 18.0398 45.0475C17.883 44.8926 17.3506 44.9795 16.8566 45.2407C16.2091 45.5831 16.0441 45.5787 16.2654 45.225C16.4342 44.9552 16.4658 44.7345 16.3358 44.7345C16.2057 44.7345 15.8687 45.1601 15.5868 45.6803C15.305 46.2006 15.2567 46.5149 15.4796 46.3788C16.0817 46.0112 17.2933 46.8926 16.7447 47.2991C16.1161 47.7648 15.9705 48.7486 16.5301 48.7486C16.7846 48.7486 17.1957 48.2213 17.4438 47.5769C17.8457 46.5327 18.0707 46.4334 19.5124 46.6646C20.4021 46.8072 21.4067 47.2843 21.7448 47.7247C22.083 48.1652 22.3661 48.3097 22.374 48.0458C22.3943 47.37 20.3541 45.5548 19.9846 45.9198C19.8167 46.0856 19.6794 46.0092 19.6794 45.7501C19.6794 45.491 20.4093 44.5042 21.3014 43.5572C22.1934 42.6102 22.7909 42.0863 22.6292 42.3929C22.4551 42.7231 22.618 42.9504 23.0286 42.9504C23.41 42.9504 24.0549 43.4522 24.4616 44.0655C25.3237 45.3652 26.274 45.6013 25.4599 44.3134C25.009 43.6002 25.0536 43.2915 25.7112 42.5737C26.1951 42.0454 26.3318 41.5918 26.0575 41.4243C25.8083 41.2721 25.4155 41.4811 25.1846 41.8887C24.5123 43.0754 23.897 42.2596 23.8132 40.0702C23.7519 38.4703 23.889 38.0443 24.4654 38.0443C25.0278 38.0443 25.127 38.313 24.8976 39.2158C24.6508 40.1872 24.7287 40.3384 25.3537 40.1015C25.8658 39.9074 26.5969 40.3284 27.6341 41.4149C29.0693 42.9181 29.1612 42.9519 29.167 41.9787C29.1704 41.4093 29.2957 40.4918 29.4454 39.9399C29.6087 39.3377 29.516 38.9363 29.2135 38.9363C28.9362 38.9363 28.7093 39.2374 28.7093 39.6054C28.7093 40.4704 27.9795 40.4715 27.6437 39.6074C27.4671 39.1527 27.9375 38.6612 29.1197 38.0654C30.0741 37.5844 30.9559 37.2906 31.0792 37.4124C31.2025 37.5342 31.2012 38.5291 31.0764 39.6233C30.8385 41.7082 31.5396 42.4234 32.0429 40.6093C32.2788 39.759 32.3958 39.7079 32.8093 40.2748C33.1828 40.7868 33.2279 40.6297 33.0017 39.6057C32.8391 38.8698 32.5179 38.2008 32.2879 38.119C31.5995 37.8743 31.8128 37.2142 32.7386 36.7248C33.4966 36.324 33.6756 36.4784 34.1429 37.9356C34.4374 38.8542 35.0085 39.8631 35.412 40.1776C36.0716 40.6919 36.0417 40.7763 35.115 41.0157C34.5481 41.1621 32.621 41.9744 30.8325 42.8208C28.3198 44.01 26.727 45.2239 23.8254 48.1615C21.463 50.5531 20.1632 52.2029 20.3211 52.6093C20.4591 52.9647 20.3837 53.1404 20.1535 52.9999C19.9233 52.8593 19.5371 53.0936 19.2953 53.5204C18.8895 54.2367 18.7917 54.2195 18.0259 53.2973C17.2347 52.3445 15.1645 51.5762 15.1645 52.2354C15.1645 52.7118 16.9579 53.7154 17.3651 53.4668C17.5619 53.3467 17.723 53.5317 17.723 53.8781C17.723 54.2245 17.5062 54.3756 17.2412 54.2138C16.9763 54.052 17.5425 54.8637 18.4996 56.0175C19.4567 57.1712 19.9903 58.1152 19.6855 58.1152C19.3702 58.1152 19.2472 58.4135 19.4002 58.8074C19.5601 59.219 19.4808 59.3847 19.2047 59.2161C18.9069 59.0343 18.8358 59.386 19.0064 60.1964C19.2606 61.4031 19.2419 61.3947 18.5948 60.0108C18.2221 59.2135 17.5905 58.5613 17.1914 58.5613C16.7922 58.5613 16.5628 58.7165 16.6815 58.9062C16.8002 59.0959 16.4348 60.199 15.8696 61.3575C14.9523 63.2377 14.9168 63.5239 15.5392 64.0231C16.1235 64.4918 16.1906 64.4612 15.9531 63.8345C15.7951 63.4176 15.9575 62.8506 16.3201 62.5534C16.6778 62.2601 17.001 62.1952 17.0383 62.4092C17.0756 62.6233 17.2544 61.8952 17.4357 60.7913L17.7652 58.7843L17.8532 61.0143C17.9015 62.2409 17.9095 65.0006 17.8708 67.147C17.8163 70.1736 17.9383 71.0496 18.4144 71.0496C18.752 71.0496 20.3112 72.3283 21.8793 73.8912L24.7302 76.7328L23.1532 77.0251C20.2279 77.5672 20.2456 78.3236 23.2367 80.5973C24.719 81.724 26.125 82.6459 26.3611 82.6459C26.8447 82.6459 27.3548 80.5325 27.3548 78.5289C27.3548 77.7521 26.8728 76.6336 26.1951 75.838C24.7972 74.1969 24.9742 72.9484 26.953 70.4921C27.6941 69.5722 28.0562 68.8195 27.7576 68.8195C27.4095 68.8195 27.4828 68.5271 27.9621 68.0039C28.3731 67.5553 28.7093 66.9578 28.7093 66.6761C28.7093 66.3945 29.2173 65.8353 29.8381 65.4334C31.4627 64.3818 31.3414 63.0214 29.6229 63.0214C28.4885 63.0214 28.1346 62.7262 27.3532 61.1286C26.533 59.4516 26.5061 59.1792 27.1169 58.7379C27.545 58.4287 27.8063 57.5324 27.8063 56.3733C27.8063 53.1744 31.2014 51.0872 34.5366 52.2358C35.2709 52.4886 36.2986 52.5852 36.8203 52.4504C37.39 52.3033 38.1236 52.5225 38.6571 52.9994C39.5329 53.7824 39.5452 53.7462 39.5452 50.3906C39.5452 47.0736 39.5788 46.9707 40.8773 46.3074C42.5754 45.4399 47.2061 45.4226 49.2736 46.276C50.1384 46.633 50.819 47.0845 50.7858 47.2795C50.7528 47.4745 50.7497 48.8192 50.7791 50.2677C50.8301 52.7755 50.8715 52.8666 51.6463 52.1739C52.0939 51.7738 53.7701 51.2593 55.3712 51.0307C56.9723 50.802 58.8147 50.4106 59.4655 50.161C60.4982 49.7647 60.7243 49.8466 61.2433 50.8047C61.5704 51.4084 62.1046 51.8012 62.4305 51.6777C63.3844 51.3161 63.1181 52.0154 61.7302 53.5166C60.8682 54.4489 60.565 55.1136 60.8203 55.5115C61.0309 55.8397 61.2063 56.6291 61.2101 57.2656C61.2137 57.9022 61.6185 58.782 62.1093 59.2208C62.6001 59.6595 62.8572 60.2426 62.6806 60.5164C62.2889 61.1239 62.2478 61.3279 62.1764 63.0214C62.128 64.1684 61.9427 64.3604 60.8784 64.3663C57.8402 64.383 57.7715 66.7295 60.7546 68.5898C61.7325 69.1996 62.7203 70.0527 62.9497 70.4856C63.179 70.9185 63.5126 73.6313 63.6909 76.5142C63.8692 79.397 64.1982 81.8675 64.4219 82.004C64.6455 82.1406 66.0985 81.2872 67.6506 80.1076L70.4726 77.9628L68.5748 77.7398L66.677 77.5168L70.9503 74.0259C73.3007 72.1059 75.122 70.3725 74.9977 70.1738C74.8735 69.9752 75.1251 69.539 75.5569 69.2046C76.2817 68.6433 76.29 68.6622 75.6648 69.4496C75.0628 70.2079 75.0628 70.2769 75.6648 70.0706C76.0373 69.943 76.2779 69.4588 76.1995 68.9946C76.1211 68.5304 75.8638 66.9463 75.6278 65.4745C75.3918 64.0026 75.087 62.397 74.9506 61.9064C74.7444 61.1645 74.7886 61.127 75.2129 61.6834C75.6152 62.211 75.6884 61.9989 75.5589 60.6798C75.4686 59.7599 75.5715 59.0073 75.7877 59.0073C76.0039 59.0073 75.876 58.7062 75.5036 58.3383C74.6268 57.4721 74.1414 57.4831 74.4826 58.3615C74.6462 58.7827 74.5647 58.9396 74.2744 58.7624C74.012 58.6022 73.8968 58.2148 74.0185 57.9015C74.1402 57.5883 74.0017 57.0949 73.7107 56.8052C73.3047 56.401 73.3918 56.351 74.0846 56.5902C74.5812 56.7616 75.222 57.1869 75.5086 57.5353C75.893 58.0026 76.1154 58.0316 76.3566 57.6461C76.5364 57.3587 76.4035 56.9453 76.0613 56.7274C75.5369 56.3935 75.5422 56.2658 76.0948 55.9147C76.4554 55.6856 76.9102 55.5956 77.1055 55.7148C77.3007 55.834 77.327 55.5878 77.1638 55.1677C76.9254 54.554 77.0597 54.4536 77.8468 54.6569C78.3857 54.7961 78.7127 54.728 78.5736 54.5056C78.1952 53.9008 77.1688 54.0173 76.4281 54.749C76.0675 55.1053 75.6297 55.2558 75.4552 55.0835C75.2808 54.9112 75.2058 55.0462 75.2886 55.3835C75.5985 56.646 74.3937 56.3171 73.9337 55.0135C73.6701 54.2664 73.2406 53.6552 72.9794 53.6552C72.7182 53.6552 72.5044 53.3423 72.5044 52.9598C72.5044 52.5298 72.2891 52.3869 71.94 52.5853C71.6296 52.7618 71.5134 52.7547 71.6817 52.5695C72.2747 51.9173 67.9065 46.3743 65.945 45.2899C65.4017 44.9895 65.6635 44.5012 67.2964 42.7691C68.9319 41.0341 69.2368 40.4645 68.8812 39.8081C68.2104 38.5699 68.3517 38.4026 69.2875 39.3271C69.7531 39.787 70.4134 40.2735 70.7549 40.4081C71.1657 40.5701 71.2178 40.7776 70.9089 41.0214C70.6521 41.2241 69.6479 42.3609 68.6773 43.5477C67.2661 45.2732 67.0883 45.6753 67.7896 45.5548C68.3093 45.4655 68.6207 45.6312 68.5538 45.9615C68.4917 46.2681 68.6561 46.519 68.9191 46.519C69.1821 46.519 69.2523 46.7507 69.0751 47.0339C68.8752 47.3534 68.9513 47.4278 69.2754 47.2299C69.657 46.9969 69.6664 46.6682 69.3104 46.0111C68.6682 44.8258 69.0891 43.8429 70.2389 43.8429C71.6753 43.8429 72.8625 44.7685 72.6168 45.6968C72.3406 46.74 71.2746 46.7678 71.0187 45.7385C70.9119 45.3092 70.9035 45.5917 70.9999 46.3662C71.1077 47.2326 70.9532 47.8626 70.5982 48.0035C70.2501 48.1417 70.223 48.2466 70.5298 48.2679C70.8095 48.2873 71.899 47.5023 72.9509 46.5237C74.0028 45.545 75.0297 44.8458 75.233 44.9699C75.9496 45.4075 76.0971 44.3824 75.3997 43.8107C74.8163 43.3323 74.6215 43.343 74.2829 43.8717C73.9846 44.3374 73.8708 44.3562 73.8658 43.9405C73.8622 43.6261 74.1807 43.247 74.574 43.0979C74.9673 42.9488 75.1197 42.7042 74.9126 42.5544C74.7056 42.4045 74.1356 41.7801 73.646 41.1669C73.1564 40.5536 73.7342 40.955 74.93 42.0589C78.8953 45.7194 83.7431 52.6505 83.0798 53.7108C82.885 54.0221 82.9421 54.1213 83.2189 53.9523C83.8726 53.5533 85.8735 60.0272 86.7609 65.4122C87.4164 69.3901 87.399 70.6302 86.6441 73.7258C86.5544 74.0937 86.4537 75.216 86.4204 76.2197L86.3599 78.0446L80.5779 80.9603L74.7959 83.8761L74.2945 82.3752C74.0187 81.5498 73.6174 80.7671 73.4027 80.636C73.188 80.505 71.2582 82.1541 69.1142 84.3009L65.2161 88.204L65.5132 90.7333C65.7649 92.8758 65.6887 93.3299 65.015 93.7024C64.2705 94.1139 64.3014 94.3664 65.4985 97.6488C66.2019 99.5775 68.346 104.266 70.263 108.069C73.5857 114.659 75.5064 120.135 76.3618 125.457C76.5387 126.558 76.9768 128.264 77.3353 129.248C77.6939 130.233 78.0597 132.142 78.1483 133.491C78.2764 135.442 78.4777 135.973 79.1318 136.085C81.9909 136.574 82.8888 137.131 82.8888 138.416C82.8888 140.236 81.825 140.628 76.8786 140.628C71.9686 140.628 71.3711 140.287 71.8506 137.762C72.0949 136.476 72.0145 136.167 71.4346 136.167C71.0392 136.167 70.6056 135.716 70.4711 135.164C70.3367 134.612 69.7062 132.153 69.0701 129.7C68.434 127.247 67.7383 124.278 67.524 123.102C66.9008 119.68 66.5989 118.948 66.1431 119.752C64.9901 121.787 61.2171 133.631 61.2171 135.214C61.2171 135.757 61.8364 136.272 63.0553 136.745C64.6685 137.371 64.8758 137.612 64.7484 138.709L64.6033 139.959H59.4111H54.2189L54.2133 136.836C54.2077 133.761 55.2618 126.946 56.2825 123.456C56.5695 122.475 57.3119 120.681 57.9322 119.47C58.9445 117.494 59.0414 116.855 58.8784 113.226C58.6766 108.735 58.3046 107.788 54.769 102.773C53.1149 100.426 52.5455 99.1721 52.3342 97.4092C52.1825 96.1437 51.8517 94.9821 51.5992 94.828C51.2895 94.6389 51.2241 99.6152 51.3983 110.117C51.5403 118.68 51.493 124.984 51.2932 124.125C51.0934 123.267 50.7294 121.601 50.4842 120.425C49.6489 116.415 48.9274 117.003 48.5029 122.039C48.0324 127.622 48.0696 133.852 48.5753 134.16C48.8236 134.312 49.0268 134.09 49.0268 133.666C49.0268 133.243 49.1321 133.001 49.2608 133.128C49.6508 133.513 47.4784 141.517 47.0228 141.374C46.7897 141.3 46.3697 140.235 46.0895 139.006C45.8092 137.776 44.4761 134.477 43.127 131.674L40.6741 126.578L40.5373 112.318C40.4532 103.564 40.2426 98.3097 39.9917 98.7107C39.7669 99.07 39.6947 99.8041 39.8314 100.342C40.0509 101.206 39.8779 101.336 38.346 101.461C36.8214 101.584 36.5086 101.817 35.7552 103.386C34.645 105.697 33.2506 111.748 33.237 114.313C33.2297 115.683 33.6433 117.101 34.5411 118.784C36.1634 121.824 37.1089 125.486 37.4681 130.121C37.6191 132.069 37.9391 133.784 38.1792 133.93C38.6415 134.212 39.9969 137.693 39.9969 138.598C39.9969 138.892 38.4223 139.594 36.4978 140.158C34.5733 140.722 32.4097 141.359 31.6897 141.575C30.1227 142.043 29.4146 142.067 29.0105 141.668L29.0103 141.668ZM46.6166 136.501C46.4914 136.195 46.3889 136.446 46.3889 137.059C46.3889 137.672 46.4914 137.923 46.6166 137.616C46.7419 137.31 46.7419 136.808 46.6166 136.501ZM45.4146 132.8C45.4146 131.264 44.4413 129.528 42.6761 127.916C41.8706 127.18 41.3079 126.778 41.4257 127.024C41.5435 127.269 42.328 128.925 43.1691 130.703C44.7744 134.098 45.4146 134.696 45.4146 132.8ZM47.4792 127.619C48.444 119.952 48.432 119.85 46.5611 119.798C44.2933 119.734 43.8912 120.482 44.1676 124.247C44.3017 126.075 44.2514 126.987 44.0514 126.355C43.8574 125.741 43.6784 124.393 43.6537 123.358C43.6178 121.859 43.4677 121.53 42.9147 121.74C42.533 121.884 41.9103 122.596 41.5308 123.321C40.7711 124.772 40.8755 125.038 43.3355 127.916C44.3444 129.096 44.4846 129.149 44.5251 128.362C44.5504 127.871 44.8638 128.545 45.2216 129.859C46.4505 134.371 46.655 134.168 47.4792 127.619ZM51.788 82.6952C51.4587 81.8087 51.3601 82.4895 51.3754 85.5446L51.3955 89.5587L51.808 86.7093C52.0657 84.9296 52.0581 83.4226 51.788 82.6952ZM39.9054 80.75L39.7709 77.9624L38.9246 79.1954C37.5562 81.1891 37.4773 83.8889 38.706 86.6871L39.7709 89.1127L39.9054 86.3251C39.9793 84.7919 39.9793 82.2831 39.9054 80.75ZM17.5347 67.3712C17.7044 65.0282 17.5969 63.8968 17.1439 63.2579C16.3891 62.1933 16.3042 62.6934 17.0417 63.86C17.625 64.7826 17.2302 66.3543 16.5235 65.9228C16.2205 65.7378 16.2194 66.0338 16.5203 66.8156C17.2264 68.6501 17.0635 69.2251 15.7453 69.5519C14.6368 69.8268 14.6046 69.8883 15.4067 70.1981C17.136 70.866 17.2971 70.6521 17.5347 67.3712H17.5347ZM53.0058 66.204C53.0845 65.4255 52.9343 64.805 52.6671 64.805C52.4031 64.805 52.1871 64.504 52.1871 64.136C52.1871 63.7681 51.998 63.467 51.767 63.467C51.5359 63.467 51.2588 63.0154 51.1512 62.4635C51.0436 61.9115 50.9279 63.1402 50.8941 65.1939L50.8326 68.9279L51.8484 68.2654C52.4647 67.8635 52.92 67.0526 53.0058 66.204H53.0058ZM76.8762 64.2754C76.7321 63.9196 76.6251 64.0253 76.6034 64.5449C76.5838 65.015 76.6905 65.2785 76.8406 65.1303C76.9906 64.982 77.0066 64.5974 76.8762 64.2754H76.8762ZM75.9732 62.9374C75.8291 62.5816 75.7221 62.6872 75.7004 63.2068C75.6808 63.677 75.7875 63.9404 75.9376 63.7922C76.0876 63.644 76.1036 63.2593 75.9732 62.9374H75.9732ZM10.1022 61.176C9.98951 60.8419 9.78485 61.0441 9.6252 61.6472C9.42881 62.3891 9.48757 62.5632 9.82261 62.2322C10.085 61.9731 10.2108 61.4977 10.1022 61.176ZM78.7318 61.4676C78.659 61.4098 77.99 61.2206 77.245 61.0473C75.9813 60.7532 75.9498 60.7756 76.7746 61.3809C77.2608 61.7378 77.9299 61.9269 78.2614 61.8012C78.5929 61.6756 78.8046 61.5254 78.7318 61.4676ZM14.7827 60.2354C14.2656 59.7246 13.2265 60.2191 13.5914 60.8023C13.7275 61.0199 14.1508 61.0797 14.5321 60.9352C14.9848 60.7636 15.0717 60.5208 14.7827 60.2354ZM76.8762 58.4772C76.7321 58.1214 76.6251 58.2271 76.6034 58.7467C76.5838 59.2169 76.6905 59.4803 76.8406 59.3321C76.9906 59.1839 77.0066 58.7992 76.8762 58.4772H76.8762ZM13.0199 58.2655C12.7095 58.1418 12.2016 58.1418 11.8912 58.2655C11.5808 58.3892 11.8347 58.4904 12.4555 58.4904C13.0763 58.4904 13.3303 58.3892 13.0199 58.2655ZM16.519 56.9478C16.519 56.8538 16.1126 56.7768 15.616 56.7768C15.1193 56.7768 14.713 56.9587 14.713 57.1811C14.713 57.4034 15.1193 57.4804 15.616 57.3521C16.1126 57.2238 16.519 57.0418 16.519 56.9478ZM18.0377 57.0024C17.8953 56.6359 17.5753 56.4602 17.3265 56.6121C17.0483 56.782 17.11 57.036 17.4866 57.2718C18.3087 57.7863 18.3369 57.7726 18.0377 57.0024ZM10.2556 56.4423C10.8172 55.7349 10.8013 55.7192 10.0852 56.2739C9.45976 56.7585 9.29506 56.7662 9.29506 56.3111C9.29506 55.9949 9.17313 55.8566 9.0241 56.0038C8.77728 56.2477 9.15172 57.2229 9.49217 57.2229C9.57127 57.2229 9.91483 56.8716 10.2556 56.4424V56.4423ZM81.6471 56.9275C81.3367 56.8037 80.8288 56.8037 80.5183 56.9275C80.2079 57.0512 80.462 57.1524 81.0827 57.1524C81.7035 57.1524 81.9575 57.0512 81.6471 56.9275ZM81.3053 55.8899C81.4634 55.6371 81.2822 55.5623 80.8804 55.7146C80.0982 56.0111 79.9551 56.3308 80.6046 56.3308C80.8382 56.3308 81.1535 56.1324 81.3053 55.8899ZM13.5725 53.7151C13.7702 52.7009 13.145 52.3829 12.7961 53.3202C12.5679 53.9332 12.8859 55.1623 13.194 54.858C13.3 54.7532 13.4704 54.2389 13.5725 53.7151ZM15.4977 54.2388C15.078 53.8241 14.6077 53.6101 14.4528 53.7631C14.0084 54.2021 14.6906 54.9928 15.5136 54.9928C16.2028 54.9928 16.2016 54.9341 15.4977 54.2388H15.4977ZM74.9875 53.2087C75.141 52.9634 74.9378 52.7627 74.536 52.7627C74.1342 52.7627 73.9311 52.9634 74.0845 53.2087C74.238 53.454 74.4412 53.6548 74.536 53.6548C74.6309 53.6548 74.8341 53.454 74.9875 53.2087ZM76.7742 52.3475C76.9171 52.1192 76.8275 51.8063 76.5751 51.6522C76.3228 51.4981 76.1163 51.685 76.1163 52.0674C76.1163 52.8508 76.3872 52.9662 76.7742 52.3475ZM19.6794 51.6214C19.6794 51.2389 19.4763 51.0501 19.2279 51.2017C18.9796 51.3533 18.7764 51.2648 18.7764 51.005C18.7764 50.7452 18.4209 50.5393 17.9863 50.5475C17.3235 50.56 17.3679 50.7036 18.2621 51.4395C19.5482 52.4979 19.6794 52.5147 19.6794 51.6214ZM11.7158 50.7557C11.4057 49.9574 10.8256 49.8904 10.3807 50.6016C10.1884 50.9089 10.2561 50.9959 10.5486 50.8173C10.8181 50.6527 11.1663 50.7221 11.3222 50.9714C11.7509 51.6566 12.0105 51.5143 11.7158 50.7557ZM74.4647 50.8339C74.6281 50.9953 74.7618 50.8995 74.7618 50.621C74.7618 50.3425 75.0666 50.2302 75.439 50.3714C75.8115 50.5126 76.1163 50.4122 76.1163 50.1483C76.1163 49.8845 76.4199 49.7837 76.7909 49.9244C77.162 50.065 77.3475 50.41 77.2032 50.6909C77.059 50.9718 77.3604 50.6999 77.873 50.0866C78.3857 49.4734 78.8035 48.7709 78.8015 48.5256C78.7995 48.2803 78.5907 48.4308 78.3376 48.8601C77.8356 49.7115 76.5678 49.9301 76.5678 49.1653C76.5678 48.9039 76.7912 48.2775 77.0643 47.7734C77.4262 47.1055 77.4257 46.9394 77.0623 47.1613C76.72 47.3702 76.6398 46.9935 76.8062 45.9592C76.9989 44.761 76.8377 44.2764 76.018 43.5902L74.9873 42.7274L75.7851 43.663C76.5759 44.5902 76.6423 45.7785 75.9635 46.853C75.7651 47.1671 75.8201 47.4106 76.0894 47.4106C76.3524 47.4106 76.5676 47.6183 76.5676 47.8723C76.5676 48.1837 76.2707 48.177 75.6553 47.8517C74.6654 47.3284 73.8545 47.5951 73.8655 48.4404C73.8696 48.7588 74.0434 48.7044 74.2992 48.3048C74.6653 47.7328 74.8191 47.7638 75.381 48.5229C76.2099 49.6427 75.9444 50.0777 74.581 49.8335C73.7892 49.6917 73.4491 49.8798 73.2694 50.5588C73.0837 51.2604 73.1606 51.3659 73.597 51.008C73.9108 50.7508 74.3011 50.6725 74.4645 50.8339L74.4647 50.8339ZM81.9857 51.1819C81.9857 51.1302 81.7148 50.8658 81.3837 50.5943C80.9339 50.2255 80.7817 50.2493 80.7817 50.6884C80.7817 51.0116 81.0526 51.276 81.3837 51.276C81.7148 51.276 81.9857 51.2337 81.9857 51.1819ZM15.6451 50.0328C16.0053 49.368 16.01 49.177 15.661 49.3901C15.3879 49.5568 15.1645 49.4406 15.1645 49.1317C15.1645 48.7135 15.034 48.6991 14.653 49.0754C14.1859 49.5369 14.3796 50.9787 14.9087 50.9787C15.0319 50.9787 15.3633 50.553 15.6451 50.0328H15.6451ZM72.0528 49.8636C72.3768 49.478 72.4207 49.1946 72.1564 49.1946C71.9042 49.1946 71.581 49.4957 71.438 49.8636C71.2951 50.2316 71.2485 50.5326 71.3345 50.5326C71.4204 50.5326 71.7437 50.2316 72.0528 49.8636ZM21.0339 49.6659C21.0339 49.0733 19.1611 47.8447 18.6932 48.1304C18.48 48.2606 18.7671 48.7473 19.3311 49.212C20.47 50.1504 21.0339 50.3007 21.0339 49.6659ZM48.774 47.7028L50.1017 47.1432L48.6467 46.5478C47.8464 46.2204 47.0627 46.0798 46.9051 46.2355C46.7476 46.3912 46.9742 46.5185 47.4087 46.5185C47.8433 46.5185 48.1152 46.7694 48.0129 47.076C47.7736 47.7933 43.2009 48.0782 42.5321 47.4175C42.1716 47.0614 42.2201 46.8124 42.7094 46.5068C43.7045 45.8853 42.4384 45.9437 41.2457 46.5743C40.2981 47.0753 40.2983 47.0769 41.3883 47.6735C42.761 48.4248 47.0208 48.4417 48.774 47.7028V47.7028ZM78.2687 46.0721C77.6026 45.0184 77.4267 45.1406 77.7657 46.4215C77.9083 46.96 78.2008 47.2931 78.4158 47.1619C78.6308 47.0306 78.5646 46.5402 78.2687 46.0721ZM24.3796 46.5834C24.6706 46.1182 22.5021 44.0275 22.1201 44.4049C21.824 44.6974 23.3214 46.9277 23.8291 46.9505C24.0007 46.9585 24.2484 46.793 24.3796 46.5834ZM27.3548 43.4228C27.3548 43.1919 27.1517 42.879 26.9034 42.7274C26.655 42.5758 26.4519 42.7647 26.4519 43.1471C26.4519 43.5296 26.655 43.8425 26.9034 43.8425C27.1517 43.8425 27.3548 43.6536 27.3548 43.4228ZM49.9983 130.369C49.9983 130.001 50.2721 128.997 50.6068 128.139C50.9415 127.28 51.2154 126.879 51.2154 127.247C51.2154 127.615 50.9415 128.618 50.6068 129.477C50.2721 130.335 49.9983 130.737 49.9983 130.369ZM74.8665 66.5891C74.8665 65.7305 74.9595 65.3793 75.073 65.8085C75.1866 66.2378 75.1866 66.9403 75.073 67.3696C74.9594 67.7989 74.8665 67.4477 74.8665 66.5891ZM74.3816 63.913C74.3816 63.2997 74.4841 63.0489 74.6093 63.3555C74.7346 63.6621 74.7346 64.1639 74.6093 64.4705C74.4841 64.7771 74.3816 64.5263 74.3816 63.913ZM73.6796 59.8246C73.8074 59.6201 74.1033 59.4529 74.3369 59.4529C74.5706 59.4529 74.7618 59.6201 74.7618 59.8246C74.7618 60.029 74.466 60.1962 74.1044 60.1962C73.7428 60.1962 73.5517 60.029 73.6796 59.8246ZM71.2143 55.3751C70.8961 54.8717 70.735 54.3619 70.8562 54.2421C70.9775 54.1223 71.3128 54.4601 71.6013 54.9928C71.8899 55.5254 72.051 56.0352 71.9594 56.1257C71.8678 56.2162 71.5325 55.8784 71.2143 55.3751ZM18.5752 55.0319C18.4352 54.8082 18.6205 54.6685 18.987 54.7217C19.9537 54.8618 20.4112 55.4388 19.5556 55.4388C19.1564 55.4388 18.7152 55.2557 18.5752 55.0319ZM21.4854 54.5468C21.7512 54.0561 22.0703 53.6547 22.1944 53.6547C22.3186 53.6547 22.2027 54.0561 21.9369 54.5468C21.6711 55.0374 21.3521 55.4388 21.2279 55.4388C21.1037 55.4388 21.2196 55.0374 21.4854 54.5468ZM67.0522 50.1981L65.9576 48.9716L67.1992 50.0529C68.3597 51.0635 68.6479 51.4247 68.2938 51.4247C68.2129 51.4247 67.6542 50.8727 67.0522 50.1981ZM25.7746 49.1946C26.7445 48.2134 27.6397 47.4106 27.7639 47.4106C27.888 47.4106 27.196 48.2134 26.2261 49.1946C25.2562 50.1758 24.361 50.9787 24.2369 50.9787C24.1127 50.9787 24.8047 50.1758 25.7746 49.1946ZM63.4744 47.1876C63.1653 46.8196 63.0139 46.5185 63.1381 46.5185C63.2623 46.5185 63.6168 46.8196 63.9259 47.1876C64.2351 47.5555 64.3864 47.8566 64.2622 47.8566C64.1381 47.8566 63.7836 47.5555 63.4744 47.1876ZM28.2578 47.2422C28.2578 47.1496 28.6134 46.7983 29.048 46.4616C29.764 45.9069 29.78 45.9226 29.2184 46.63C28.6286 47.373 28.2578 47.6092 28.2578 47.2422ZM17.7888 45.7679C18.1147 45.639 18.5041 45.6549 18.6542 45.8031C18.8042 45.9513 18.5375 46.0567 18.0616 46.0373C17.5356 46.0159 17.4286 45.9102 17.7888 45.7678V45.7679ZM72.2818 43.8476C72.1236 43.5948 72.3048 43.52 72.7066 43.6723C73.4888 43.9688 73.6319 44.2885 72.9825 44.2885C72.7488 44.2885 72.4335 44.0901 72.2818 43.8476ZM62.5175 43.0042C61.9242 42.5432 61.0348 42.0892 60.5412 41.9953C59.9747 41.8875 59.5372 41.333 59.355 40.4919C59.1183 39.3993 58.7247 39.6973 58.906 40.8319C58.9689 41.2255 58.3868 41.2636 57.4924 40.9246C56.9807 40.7306 57.1099 40.153 58.146 38.0041C58.8563 36.5309 59.318 35.1344 59.1718 34.9009C59.0257 34.6673 59.3245 34.4762 59.8358 34.4762C60.9465 34.4762 60.9758 34.7619 60.0821 36.8748C59.6635 37.8647 59.5815 38.4903 59.8706 38.4903C60.13 38.4903 60.4506 38.2115 60.583 37.8706C60.7222 37.5123 61.1924 37.3461 61.6976 37.4766C62.8441 37.7728 62.8234 38.4903 61.6684 38.4903C60.9701 38.4903 60.7654 38.7877 60.7654 39.8021C60.7654 40.5235 60.9686 41.2378 61.2169 41.3894C61.4653 41.541 61.6684 41.3767 61.6684 41.0243C61.6684 40.0841 63.019 39.1364 64.1081 39.3123C65.4563 39.5302 66.6349 40.6977 66.6349 41.8154C66.6349 43.8617 64.4375 44.4962 62.5175 43.0043L62.5175 43.0042ZM64.8478 42.0236C65.124 41.5138 65.2285 40.784 65.08 40.4018C64.8418 39.7887 64.705 39.8009 63.9165 40.5058C62.872 41.4396 62.7284 42.9504 63.6843 42.9504C64.048 42.9504 64.5716 42.5334 64.8478 42.0236ZM72.4197 42.6458C72.7456 42.5169 73.135 42.5328 73.285 42.681C73.4351 42.8292 73.1684 42.9346 72.6924 42.9152C72.1665 42.8938 72.0595 42.7881 72.4197 42.6458V42.6458ZM53.3158 39.948C52.2157 39.6765 51.738 39.003 52.0592 38.1762C52.2426 37.7039 52.4519 37.7733 52.946 38.4702C53.6151 39.4138 55.0981 39.6958 55.5546 38.9662C55.6978 38.7373 55.2082 38.196 54.4666 37.7633C52.7277 36.7485 52.46 35.9906 53.4836 34.9795C54.0623 34.4078 54.7431 34.228 55.7667 34.3764C57.3415 34.6047 58.0363 35.5666 57.2134 36.3795C56.8325 36.7558 56.702 36.7034 56.702 36.1742C56.702 35.5144 55.8304 34.9222 54.8591 34.9222C53.9459 34.9222 54.5249 36.1148 55.799 36.8583C57.2127 37.6833 57.5353 38.8268 56.6117 39.7392C56.0622 40.282 54.9534 40.3522 53.3158 39.948ZM35.6655 39.0707C35.524 38.6288 35.2216 37.8063 34.9935 37.2428C34.4355 35.8645 34.451 35.8143 35.4315 35.8143C36.0486 35.8143 36.3662 36.2456 36.5807 37.3753C36.7437 38.2339 37.0711 38.9363 37.3082 38.9363C37.8855 38.9363 37.8617 36.8337 37.2804 36.4788C36.6882 36.1172 37.1541 35.3682 37.9712 35.3682C38.3339 35.3682 38.7271 36.0308 38.8977 36.9293C39.3475 39.2975 40.5564 39.0244 40.3784 36.5948L40.2396 34.6992H43.6172H46.9949L47.1445 36.2564C47.2267 37.1128 47.5315 37.9627 47.8217 38.1451C48.1189 38.3318 47.748 38.4797 46.9727 38.4835C45.6641 38.4895 45.6051 38.413 45.7804 36.9293C45.9281 35.68 45.8099 35.3682 45.1889 35.3682C44.5705 35.3682 44.4497 35.6798 44.5941 36.9015C44.7349 38.093 44.5949 38.4814 43.9662 38.6438C43.2904 38.8184 43.1572 38.5658 43.1572 37.1105C43.1572 35.8592 42.9663 35.3682 42.4799 35.3682C42.0284 35.3682 41.8027 35.8143 41.8027 36.7063C41.8027 37.4422 42.0178 38.0443 42.2808 38.0443C43.3034 38.0443 42.1874 38.8485 40.7923 39.1169C36.7059 39.9032 35.9297 39.8962 35.6655 39.0707L35.6655 39.0707ZM20.588 39.0705C20.5911 38.8741 21.3022 38.2599 22.1682 37.7057C24.1977 36.4071 24.1945 36.7061 22.1626 38.2371C21.2935 38.892 20.5849 39.267 20.588 39.0705H20.588ZM70.2468 38.4505C69.2744 37.6647 69.2553 37.6047 70.1088 38.0168C70.6537 38.2799 71.2244 38.6948 71.3771 38.9387C71.7846 39.5901 71.5109 39.4719 70.2468 38.4505ZM31.6882 35.9322C31.0936 35.3448 31.4713 34.4762 32.3213 34.4762C32.8179 34.4762 33.2243 34.7558 33.2243 35.0975C33.2243 35.7703 32.1276 36.3662 31.6882 35.9322ZM54.887 33.3504C54.2135 32.5489 54.5771 31.9966 55.4303 32.5249C55.7573 32.7273 56.4216 32.8282 56.9066 32.7492C57.667 32.6252 57.706 32.7036 57.1899 33.3178C56.4371 34.2139 55.6221 34.2255 54.887 33.3504V33.3504ZM45.076 30.5887C45.7589 30.4865 46.8763 30.4865 47.5592 30.5887C48.2421 30.6909 47.6834 30.7745 46.3176 30.7745C44.9519 30.7745 44.3931 30.6909 45.076 30.5887Z" fill="#D3C684"/>
<path d="M6.20083 140.561C5.64911 139.141 7.07685 137.545 9.4124 136.972C11.4486 136.472 14.7769 134.587 15.4102 133.574C15.7408 133.046 17.6814 126.81 20.0848 118.553C21.0488 115.242 22.7583 110.155 23.8838 107.249C25.0093 104.343 25.8166 101.784 25.6779 101.562C25.5392 101.34 25.0313 101.159 24.5494 101.159C23.4526 101.159 23.454 100.615 24.5594 97.0803C25.3695 94.4894 26.8788 88.0434 26.6881 87.9886C26.1427 87.832 22.3963 84.803 20.2507 82.7839L17.5056 80.2006L16.4472 81.3135C15.8651 81.9257 15.0686 82.4217 14.6774 82.4158C14.2861 82.4098 12.1882 80.9901 10.0154 79.2607L6.06479 76.1165L6.10979 74.0308C6.14389 72.4506 6.23013 72.2123 6.4657 73.0474C6.76971 74.1252 6.79126 74.1301 7.43656 73.2704C8.58675 71.7381 9.69024 71.1163 11.8579 70.779C13.0173 70.5986 14.8059 70.3123 15.8324 70.1428L17.6989 69.8346L18.0014 67.0988C18.2671 64.6963 18.7043 62.5349 19.4234 60.0697C19.5603 59.6003 19.2923 59.2559 18.6634 59.0935C17.879 58.8908 17.7478 58.6225 17.9821 57.7002C18.2695 56.5691 18.2454 56.5578 15.5548 56.5578C13.1973 56.5578 12.8372 56.4468 12.8372 55.7204C12.8372 54.5886 13.8881 53.8015 14.9246 54.157C15.6967 54.4219 15.6917 54.3853 14.869 53.7449C14.117 53.1595 14.0583 52.9071 14.5179 52.2353C14.8214 51.7917 15.3989 50.7856 15.8011 49.9996C16.2033 49.2137 16.8184 48.3361 17.168 48.0495C17.5177 47.7629 17.8037 47.2654 17.8037 46.944C17.8037 45.9675 19.5562 45.7209 20.8734 46.512L22.0929 47.2445L21.077 46.366C19.8339 45.291 19.8311 45.1954 20.9949 43.5808C22.1036 42.0427 23.779 41.8702 24.7198 43.1971C25.3602 44.1002 25.3682 44.0987 25.574 43.0351C25.7421 42.1667 25.6233 42.0023 24.9532 42.1754C24.3543 42.3301 24.1246 42.1433 24.1246 41.5012C24.1246 41.0126 23.9983 39.9888 23.8438 39.226C23.6276 38.1576 23.7417 37.7713 24.3409 37.5442C25.1997 37.2186 26.0487 38.1505 25.7143 39.0518C25.5842 39.4025 25.9211 39.6094 26.622 39.6094C27.3031 39.6094 27.7366 39.3536 27.7366 38.9518C27.7366 38.2098 29.9591 36.9333 31.2509 36.9333C32.488 36.9333 32.7994 36.4322 31.9454 35.8153C30.8989 35.0594 31.5088 33.7083 32.8139 33.8914C33.5464 33.9942 33.8211 34.3209 33.7938 35.057C33.7654 35.8233 33.9353 36.0062 34.4711 35.7862C35.359 35.4215 38.1782 34.7282 38.8315 34.7139C39.0981 34.7079 39.5465 35.4559 39.828 36.3758L40.3398 38.0483L40.1357 36.1996C39.8885 33.962 40.1609 33.8112 44.4484 33.8112C47.825 33.8112 47.6887 33.6956 48.2606 37.0448L48.5463 38.7173L45.9297 38.7279C44.4906 38.7339 42.5005 38.951 41.5072 39.2107C40.5139 39.4703 39.0917 39.791 38.3467 39.9234C37.6018 40.0557 36.6875 40.4168 36.315 40.7259C35.9425 41.035 35.1298 41.4347 34.509 41.6141C33.3867 41.9385 29.4603 43.8865 28.2116 44.7384C27.8521 44.9838 26.0285 46.6898 24.1593 48.5295C22.29 50.3693 20.5881 51.8195 20.3773 51.7521C20.1665 51.6847 20.1114 51.8171 20.2548 52.0463C20.7027 52.7623 20.0044 53.8817 19.1099 53.8817C18.6398 53.8817 18.2552 53.7187 18.2552 53.5196C18.2552 53.3204 17.6565 52.7202 16.9248 52.1857C15.9336 51.4618 15.5121 51.3551 15.2721 51.7673C15.095 52.0717 15.1013 52.1867 15.2861 52.0229C15.6887 51.6664 20.0593 56.3277 20.0654 57.12C20.0674 57.424 20.7041 56.5689 21.4796 55.2197C24.8813 49.3014 30.7166 44.5607 37.0139 42.5994C38.8684 42.0218 40.2816 41.4464 40.1543 41.3206C40.0271 41.1949 42.8579 41.0977 46.4451 41.1047C50.5269 41.1127 52.8663 41.2786 52.6974 41.5486C52.5395 41.801 52.8314 41.8756 53.4012 41.7284C53.9367 41.59 54.3748 41.6588 54.3748 41.8811C54.3748 42.1035 54.6763 42.2854 55.0448 42.2854C57.4373 42.2854 65.7862 47.674 69.0293 51.3114C72.7622 55.4981 75.5638 62.5981 75.5872 67.9311C75.5952 69.6878 75.621 69.7156 77.2881 69.7494C78.9119 69.7823 80.8544 70.336 83.2704 71.4549C83.8912 71.7424 84.8055 72.6149 85.3022 73.3938C86.3801 75.0842 86.7538 75.1817 87.0153 73.8407C87.1229 73.2888 87.2386 74.0648 87.2724 75.5653L87.3339 78.2934L81.4397 81.2903C75.6384 84.2399 74.2473 84.5695 74.2337 82.998C74.2152 80.8695 73.4658 81.1597 69.8057 84.7128L66.0902 88.3196L66.5156 90.6137C66.8591 92.4666 66.8091 93.0527 66.2558 93.6618C65.641 94.3384 65.6681 94.7047 66.5194 97.2299C67.0412 98.7776 69.1743 103.503 71.2596 107.731C74.3685 114.034 75.2712 116.362 76.2747 120.665C76.9477 123.551 77.8905 127.194 78.3698 128.761C78.849 130.327 79.3602 132.467 79.5057 133.516C79.7467 135.253 79.9053 135.448 81.2801 135.703C83.137 136.047 84.1734 137.014 84.1734 138.401C84.1734 140.48 83.1837 140.854 77.6848 140.854C74.3438 140.854 72.4305 140.672 72.0734 140.319C71.7754 140.024 71.5316 139.021 71.5316 138.089C71.5316 137.157 71.3366 136.394 71.0982 136.394C70.8599 136.394 70.4587 135.641 70.2066 134.721C69.3527 131.604 67.8038 125.478 67.2465 123.014C66.8246 121.147 66.6159 120.774 66.3744 121.452C66.1998 121.943 65.6797 123.348 65.2186 124.575C64.1166 127.506 61.9212 135.08 62.1202 135.264C62.2059 135.343 63.0407 135.721 63.9754 136.104C65.9394 136.908 66.4329 137.8 65.7423 139.297C65.0863 140.72 62.9248 141.08 58.035 140.581L54.1491 140.185L54.0623 136.84C53.9099 130.972 55.4405 123.523 57.7068 119.105C59.8214 114.983 59.081 108.856 55.999 104.972C54.4922 103.073 53.8236 102.041 52.9201 100.218C52.4418 99.2528 52.3698 101.355 52.4992 112.503L52.6552 125.952L50.8298 132.4C49.8258 135.946 48.9429 139.349 48.8678 139.962C48.7672 140.783 48.4253 141.112 47.5722 141.21C46.5176 141.332 46.3652 141.138 45.8799 139.061C45.5865 137.806 44.2795 134.535 42.9754 131.792L40.6043 126.805L40.4715 114.468C40.3283 101.165 40.3231 101.139 37.9656 102.025C36.8175 102.456 35.9255 104.745 34.7395 110.302C33.8204 114.609 33.8643 115.08 35.4794 118.232C37.3141 121.812 38.0317 124.547 38.4022 129.369C38.5672 131.516 38.8541 133.272 39.0398 133.272C39.5636 133.272 40.83 136.709 40.83 138.131C40.83 139.311 40.6049 139.476 37.7523 140.382C35.9167 140.965 33.8668 141.302 32.673 141.218L30.6714 141.077L33.7856 140.275C35.4984 139.834 37.5763 139.194 38.4031 138.852L39.9063 138.232L39.2226 136.318C38.8466 135.265 38.2418 134.239 37.8785 134.039C37.3953 133.772 37.2163 132.811 37.2114 130.462C37.2034 126.392 36.2344 122.314 34.5076 119.078C33.5153 117.219 33.1563 115.937 33.1556 114.253C33.1536 109.541 35.493 101.443 37.0236 100.862C37.377 100.728 38.137 100.59 38.7124 100.554C39.5169 100.505 39.7169 100.274 39.5781 99.5569C39.4788 99.0436 39.7198 98.3053 40.1138 97.9161C40.6486 97.3878 40.83 96.3033 40.83 93.6349C40.83 91.6694 40.623 89.9349 40.3699 89.7804C39.2439 89.093 37.6695 85.0612 37.6695 82.8651C37.6695 80.6642 38.626 78.0477 39.6496 77.4489C39.9985 77.2448 40.1528 73.6718 40.1528 65.7916V54.4288L39.024 53.5052C38.4032 52.9972 37.5497 52.6838 37.1274 52.8087C36.705 52.9336 35.5442 52.819 34.5478 52.554C33.125 52.1755 32.4012 52.2103 31.1757 52.7161C29.292 53.4936 28.6397 54.5794 28.6397 56.9373C28.6397 57.9142 28.4155 58.7873 28.1414 58.8775C27.7984 58.9905 27.8575 59.5482 28.3311 60.6678C28.9012 62.0158 29.2762 62.3184 30.5224 62.4365C32.597 62.633 32.8137 64.1299 30.9567 65.4361C30.1666 65.9918 29.4806 66.9717 29.294 67.8108C29.1193 68.5966 28.4198 69.9486 27.7395 70.8153C25.8768 73.1885 25.832 73.7068 27.3282 75.5668C28.2958 76.7695 28.6104 77.562 28.4468 78.3838C28.3215 79.0128 28.0879 80.28 27.9276 81.1999C27.528 83.4933 26.3859 83.4009 23.0862 80.8082C20.1646 78.5126 19.9802 77.661 22.1815 76.6297L23.6126 75.9593L21.82 74.063C19.0668 71.1508 18.1085 70.664 15.8778 71.0445C14.8264 71.2239 13.2945 71.434 12.4736 71.5114C10.8538 71.6641 9.33998 72.4973 7.89116 74.0335C6.69069 75.3064 6.70683 75.3829 8.43527 76.6119L9.90263 77.6553L8.54814 76.1559L7.19366 74.6565L8.77389 75.8111C9.64302 76.4461 10.3541 77.1741 10.3541 77.4288C10.3541 77.6836 10.5391 78.0593 10.7651 78.2637C11.0039 78.4796 11.0401 78.4018 10.8513 78.0778C10.2798 77.0968 11.1093 77.476 13.1525 79.1299C14.9315 80.5699 15.2217 80.671 15.908 80.0898C17.5051 78.737 17.7837 78.8318 21.0867 81.8515C22.9083 83.5169 25.1483 85.3813 26.0646 85.9946C28.3387 87.5167 28.2704 88.578 25.2098 99.2634C24.9757 100.081 25.1023 100.267 25.8922 100.267C26.4256 100.267 26.9825 100.577 27.1297 100.956C27.277 101.335 26.3708 104.31 25.116 107.567C23.8612 110.824 22.0164 116.284 21.0166 119.701C20.0167 123.117 18.5293 127.898 17.7111 130.325C16.3662 134.315 16.0418 134.866 14.3278 136.075C13.2852 136.81 11.4661 137.654 10.2854 137.951C8.06534 138.508 6.85326 139.609 7.65527 140.34C7.90335 140.566 10.568 140.62 13.7403 140.464L19.384 140.185L19.2477 136.925C19.1124 133.69 19.1323 133.627 21.8624 128.562C23.3954 125.718 24.9851 122.027 25.453 120.225C25.9149 118.447 26.5486 116.44 26.8614 115.766C27.5802 114.215 29.0911 114.095 29.0911 115.589C29.0911 116.166 30.1149 119.186 31.3661 122.301C35.7643 133.248 35.8219 136.534 31.6516 138.577C29.9784 139.396 29.5223 139.837 29.6904 140.472C29.9524 141.462 28.74 141.631 28.3619 140.658C27.9573 139.616 28.8444 138.554 30.9527 137.554C32.5664 136.789 33.0049 136.313 33.3433 134.959C33.7913 133.168 32.8772 129.188 30.9074 124.352C30.3579 123.002 29.4441 120.637 28.8767 119.096C27.7436 116.017 27.6812 116.058 26.6165 120.594C26.2451 122.175 24.6781 125.869 23.1341 128.802L20.327 134.134L20.4506 137.717L20.5743 141.3H13.5312C7.39083 141.3 6.45125 141.205 6.201 140.561L6.20083 140.561ZM48.3983 136.906C48.9326 134.639 48.311 132.938 47.0379 133.184C46.6033 133.269 46.2478 133.507 46.2478 133.714C46.2478 133.921 46.1244 134.408 45.9737 134.796C45.7788 135.298 45.9667 135.502 46.6243 135.502C47.8012 135.502 47.9679 135.854 47.5751 137.509C47.3457 138.476 47.2279 138.599 47.1507 137.955C47.0919 137.464 47.0763 136.762 47.1161 136.394C47.1747 135.852 47.1101 135.839 46.7772 136.326C46.5266 136.692 46.5496 137.641 46.836 138.756C47.3542 140.772 47.5386 140.554 48.3983 136.906H48.3983ZM79.7712 139.521C82.7134 139.516 82.8188 139.478 82.8188 138.409C82.8188 137.565 82.5245 137.239 81.5772 137.032C78.1021 136.275 78.1139 136.286 78.0328 133.684C77.9913 132.352 77.6478 130.529 77.2693 129.635C76.8909 128.74 76.3632 126.619 76.0965 124.921C75.8299 123.224 75.3032 120.971 74.9261 119.915C74.549 118.859 74.2404 117.64 74.2404 117.206C74.2404 116.772 72.5926 113.134 70.5787 109.122C66.9032 101.801 64.3075 95.558 64.3075 94.0401C64.3075 93.5925 64.622 93.107 65.0063 92.9613C65.6754 92.7077 65.6512 91.2358 64.9346 88.6206C64.7183 87.8311 72.6548 79.7504 73.6465 79.7504C73.9604 79.7504 74.5204 80.3297 74.891 81.0376L75.5648 82.3248L80.7584 79.5881C83.6149 78.0829 85.9581 76.7235 85.9656 76.5672C85.9726 76.411 85.3189 75.3096 84.5119 74.1196C83.2999 72.3326 82.7459 71.9085 81.3285 71.6827C80.3846 71.5323 79.3789 71.1786 79.0936 70.8967C77.96 69.7769 76.418 70.4299 72.4052 73.7293C68.5844 76.8707 68.4202 77.0744 69.7083 77.0744C71.8266 77.0744 71.4007 78.1076 68.3322 80.4129C64.3184 83.4283 64.1715 83.3051 63.6186 76.4642C63.1664 70.8691 63.1235 70.7084 61.8126 69.6914C58.9592 67.4779 58.4381 66.837 58.4381 65.5417C58.4381 64.1725 59.079 63.694 60.9127 63.694C61.8304 63.694 61.9793 63.4431 62.1233 61.6539C62.2264 60.3739 62.0752 59.4395 61.7173 59.1462C61.4037 58.889 61.147 58.2109 61.147 57.6392C61.147 57.0675 60.9178 56.1028 60.6377 55.4954C60.197 54.54 60.2791 54.2515 61.2469 53.3559L62.3655 52.3207L61.384 51.2984C60.595 50.4768 60.1876 50.3557 59.3074 50.6812C58.7051 50.9039 57.078 51.2237 55.6916 51.3917C52.2929 51.8037 50.3112 53.5085 50.3112 56.0201C50.3112 57.6837 51.0648 60.5451 51.6275 61.0179C51.7734 61.1406 52.1973 61.843 52.5693 62.579C52.9414 63.3149 53.4998 64.1822 53.8102 64.5064C55.1628 65.9189 54.5241 67.0058 50.6185 69.9382C48.7966 71.306 48.5372 71.7099 48.5223 73.2015C48.511 74.3305 48.8719 75.382 49.594 76.3236C50.1929 77.1045 51.2275 78.9249 51.893 80.369C53.0023 82.7758 53.077 83.2871 52.7889 86.5017C52.6161 88.4305 52.2926 90.0087 52.0701 90.0087C51.3951 90.0087 51.5914 93.8992 52.2796 94.1601C52.6284 94.2923 53.0292 95.4208 53.2075 96.7724C53.5156 99.1071 54.2294 100.445 57.3818 104.596C60.2561 108.381 60.8335 115.577 58.6146 119.96C58.0366 121.102 57.1501 123.612 56.6446 125.539C55.659 129.295 54.7096 138.618 55.2536 139.199C55.4347 139.392 57.5968 139.492 60.0581 139.422C64.1889 139.303 64.5332 139.224 64.5332 138.401C64.5332 137.788 64.0741 137.362 63.0655 137.04C60.4997 136.221 60.4823 136.075 62.2326 130.045C65.8919 117.438 67.1548 115.87 68.36 122.436C68.5759 123.612 69.2762 126.471 69.9162 128.788C70.5563 131.106 71.0799 133.362 71.0799 133.802C71.0799 134.242 71.4863 134.853 71.9829 135.159C72.6469 135.569 72.8859 136.2 72.8859 137.542C72.8859 139.821 73.171 140.104 75.1434 139.783C76.0125 139.642 78.095 139.524 79.7712 139.521H79.7712ZM49.6215 132.324C49.3837 131.254 49.4456 131.012 49.8881 131.282C50.3033 131.536 50.3801 131.416 50.1626 130.857C49.7324 129.749 50.3057 127.643 50.8218 128.435C51.0605 128.801 51.1104 128.427 50.9498 127.474C50.741 126.235 50.7946 126.051 51.21 126.582C51.6219 127.108 51.6749 126.871 51.4589 125.467C51.0405 122.746 50.1839 119.267 49.83 118.851C49.3907 118.335 48.7897 130.613 49.1704 132.326C49.3407 133.091 49.5815 133.718 49.7057 133.718C49.8299 133.718 49.792 133.091 49.6216 132.324H49.6215ZM44.6892 130.637C43.6974 128.743 43.3757 128.89 44.3042 130.813C44.7172 131.669 45.1353 132.289 45.2332 132.193C45.3312 132.096 45.0864 131.396 44.6892 130.637ZM47.9589 120.541C47.8832 120.466 47.2132 120.34 46.4701 120.26C45.265 120.13 45.1018 120.259 44.9597 121.453C44.7786 122.973 45.6765 128.473 46.3795 130.15C46.7697 131.08 46.9506 130.388 47.4719 125.971C47.8154 123.059 48.0346 120.616 47.9589 120.541ZM42.342 127.265C42.4819 126.905 42.4442 126.517 42.2583 126.404C42.0724 126.29 41.8907 126.585 41.8546 127.059C41.7765 128.083 41.9893 128.173 42.342 127.265H42.342ZM48.3649 125.355C48.2514 124.926 48.1585 125.277 48.1585 126.136C48.1585 126.994 48.2514 127.345 48.3649 126.916C48.4785 126.487 48.4785 125.784 48.3649 125.355ZM43.6505 124.39C43.4343 122.222 43.3469 122.059 42.7969 122.802C42.46 123.258 42.1843 123.948 42.1843 124.338C42.1843 125.033 43.5065 127.219 43.7611 126.945C43.8327 126.868 43.7829 125.718 43.6505 124.39ZM44.7502 126.052C44.6061 125.696 44.4991 125.802 44.4774 126.322C44.4578 126.792 44.5645 127.055 44.7146 126.907C44.8646 126.759 44.8806 126.374 44.7502 126.052H44.7502ZM44.3032 122.688C44.1887 122.254 44.0875 122.501 44.0783 123.237C44.0693 123.973 44.1628 124.328 44.2864 124.026C44.4101 123.724 44.4176 123.122 44.3031 122.688H44.3032ZM48.8292 120.455C48.7254 119.777 48.6377 120.226 48.6343 121.453C48.6314 122.679 48.7159 123.234 48.823 122.685C48.9302 122.137 48.933 121.133 48.829 120.455H48.8292ZM43.1087 121.02C43.3705 121.179 43.574 119.134 43.6288 115.792L43.7189 110.302L43.9903 115.431L44.2617 120.561L44.3518 115.469C44.4013 112.668 44.5325 110.466 44.6432 110.576C44.754 110.685 44.8806 112.682 44.9246 115.013L45.0046 119.251L46.4436 119.204C48.3407 119.142 49.0854 118.641 48.8128 117.612C48.6903 117.149 48.8058 116.639 49.069 116.478C49.3618 116.299 49.4138 116.4 49.203 116.737C48.9601 117.125 49.1634 117.244 49.8906 117.14C50.8175 117.007 50.9338 117.19 51.0276 118.922C51.0851 119.983 51.2523 120.97 51.399 121.115C51.7642 121.475 51.7104 114.128 51.2563 101.605C51.0473 95.8403 51.0031 88.8656 51.1581 86.1057C51.3131 83.3458 51.3384 81.0377 51.2143 80.9766C50.6805 80.7138 47.9937 74.8236 47.7607 73.4055C47.5443 72.0882 47.7195 71.6345 48.9083 70.4331C50.2778 69.0492 50.3113 68.9146 50.3113 64.8C50.3113 62.4816 50.0661 59.6789 49.7664 58.5719C49.3278 56.952 49.3407 56.189 49.8326 54.6629C50.1687 53.62 50.4978 51.5245 50.564 50.0063L50.6844 47.246L49.609 47.73C49.0176 47.9962 48.6284 48.3654 48.7442 48.5505C48.86 48.7356 47.533 48.8703 45.7953 48.8499C44.0577 48.8295 42.6359 48.6809 42.6359 48.5197C42.6359 48.3586 42.1294 47.9987 41.5103 47.7201L40.3847 47.2134L40.6671 51.5511C40.9917 56.5365 41.0272 58.9023 40.9795 72.3912C40.9604 77.7879 41.0402 84.0098 41.1567 86.2176C41.2733 88.4253 41.3998 97.597 41.4379 106.599C41.4959 120.312 41.6022 122.787 42.093 121.862C42.4152 121.254 42.8723 120.875 43.1089 121.02L43.1087 121.02ZM48.9924 112.941C49.0141 112.422 49.121 112.316 49.2651 112.672C49.3956 112.994 49.3795 113.378 49.2295 113.527C49.0795 113.675 48.9728 113.411 48.9924 112.941H48.9924ZM49.028 105.619C49.028 105.006 49.1304 104.755 49.2557 105.062C49.3809 105.368 49.3809 105.87 49.2557 106.177C49.1304 106.483 49.028 106.232 49.028 105.619ZM46.7516 105.549C46.715 105.033 46.393 104.868 45.6833 105.001C45.0063 105.128 44.8933 105.077 45.3447 104.848C46.1635 104.432 46.4505 103.119 45.8082 102.727C45.1931 102.352 45.2126 101.159 45.8339 101.159C46.1029 101.159 46.231 101.41 46.1185 101.716C46.0061 102.023 46.2238 102.625 46.6024 103.054C47.1717 103.7 47.181 103.836 46.6564 103.842C46.1314 103.848 46.127 103.914 46.6309 104.23C46.9657 104.439 47.1417 104.988 47.0219 105.45C46.8489 106.116 46.7933 106.136 46.7517 105.549L46.7516 105.549ZM47.6022 104.753C47.6022 104.277 47.776 103.782 47.9885 103.652C48.2009 103.522 48.2788 103.912 48.1616 104.518C47.9069 105.833 47.6022 105.962 47.6022 104.753ZM44.0783 101.828C44.0872 101.092 44.1886 100.845 44.3031 101.279C44.4176 101.713 44.4101 102.315 44.2864 102.617C44.1627 102.919 44.0691 102.564 44.0783 101.828H44.0783ZM47.1507 102.065C47.1507 101.827 47.4555 101.748 47.8279 101.89C48.2004 102.031 48.5052 102.225 48.5052 102.322C48.5052 102.418 48.2004 102.497 47.8279 102.497C47.4555 102.497 47.1507 102.303 47.1507 102.065ZM43.258 96.6988C43.258 93.8778 43.3313 92.7237 43.4209 94.1343C43.5105 95.5448 43.5105 97.8529 43.4209 99.2634C43.3313 100.674 43.258 99.5199 43.258 96.6988ZM47.1507 100.713C47.1507 100.468 47.3539 100.267 47.6022 100.267C47.8505 100.267 48.0537 100.468 48.0537 100.713C48.0537 100.958 47.8505 101.159 47.6022 101.159C47.3539 101.159 47.1507 100.958 47.1507 100.713ZM44.148 96.6988C44.148 94.6137 44.2258 93.7607 44.3208 94.8033C44.4159 95.8458 44.4159 97.5518 44.3208 98.5944C44.2257 99.6369 44.148 98.7839 44.148 96.6988ZM46.9426 99.1748C48.221 98.0044 48.0528 96.9244 46.6487 97.2871C46.1803 97.4081 45.6833 97.3252 45.5443 97.103C45.4052 96.8807 45.6861 96.6988 46.1684 96.6988C47.1469 96.6988 47.805 95.0912 47.0221 94.6132C46.7496 94.4469 46.447 94.547 46.3496 94.8358C46.2522 95.1246 45.9613 95.3608 45.7033 95.3608C45.42 95.3608 45.4569 95.0957 45.7962 94.6918C46.1845 94.2295 46.2016 94.0228 45.8515 94.0228C45.5728 94.0228 45.3447 93.7975 45.3447 93.5221C45.3447 93.1696 45.5391 93.1809 46.0022 93.5605C46.3638 93.857 46.8544 93.9807 47.0924 93.8354C47.3303 93.6901 47.6107 93.723 47.7154 93.9085C47.8201 94.094 47.8655 94.0451 47.8164 93.7998C47.7673 93.5544 47.8879 92.9523 48.0844 92.4617C48.3014 91.9201 48.4542 93.2092 48.4734 95.743C48.5 99.2372 48.3973 99.8755 47.8424 99.6651C47.4779 99.5269 47.0595 99.6058 46.9128 99.8404C46.766 100.075 46.4443 100.267 46.1978 100.267C45.9513 100.267 46.2865 99.7755 46.9426 99.1748H46.9426ZM49.1256 94.6918C49.1266 91.9934 49.201 90.947 49.2908 92.3665C49.3807 93.786 49.3798 95.9937 49.2888 97.2726C49.1979 98.5515 49.1244 97.3901 49.1254 94.6918H49.1256ZM45.2318 95.9574C45.5422 95.8337 46.0502 95.8337 46.3606 95.9574C46.671 96.0812 46.417 96.1824 45.7962 96.1824C45.1754 96.1824 44.9214 96.0812 45.2318 95.9574ZM46.4734 92.6847C45.6118 92.319 45.617 92.3 46.5863 92.2701C47.1451 92.2529 47.6022 92.4394 47.6022 92.6847C47.6022 92.93 47.5514 93.1166 47.4893 93.0994C47.4272 93.0822 46.9701 92.8955 46.4734 92.6847ZM44.0783 91.5697C44.0872 90.8338 44.1886 90.5867 44.3031 91.0207C44.4176 91.4546 44.4101 92.0567 44.2864 92.3587C44.1627 92.6607 44.0691 92.3056 44.0783 91.5697H44.0783ZM48.0893 90.6405C48.111 90.1209 48.218 90.0152 48.3621 90.371C48.4925 90.693 48.4765 91.0777 48.3264 91.2259C48.1764 91.3741 48.0697 91.1107 48.0893 90.6405H48.0893ZM43.1585 90.0086C43.1585 89.3954 43.261 89.1445 43.3863 89.4511C43.5115 89.7578 43.5115 90.2595 43.3863 90.5662C43.261 90.8728 43.1585 90.622 43.1585 90.0086ZM44.8932 89.7941C44.8932 89.0872 46.9815 88.3548 47.5096 88.8765C47.8847 89.247 46.3348 90.4547 45.4842 90.4547C45.1592 90.4547 44.8932 90.1574 44.8932 89.7941ZM46.4854 89.2028C46.3464 89.0654 45.9821 89.2025 45.6758 89.5073C45.2332 89.9478 45.2851 89.999 45.9285 89.757C46.3738 89.5895 46.6244 89.3401 46.4854 89.2028ZM45.8865 87.6894C45.2832 87.0934 45.1597 85.7069 45.6833 85.4077C46.3166 85.0457 47.3759 85.7684 47.5243 86.6636C47.6686 87.5336 47.6564 87.5347 47.0289 86.7075C46.675 86.241 46.2663 86.0499 46.1207 86.2827C45.7876 86.8151 46.2666 87.567 47.1507 87.8995C47.7388 88.1206 47.7358 88.1588 47.1281 88.1893C46.7432 88.2087 46.1845 87.9837 45.8865 87.6893L45.8865 87.6894ZM45.5705 83.3185C45.417 83.0732 45.5066 82.8725 45.7696 82.8725C46.0325 82.8725 46.2477 83.0732 46.2477 83.3185C46.2477 83.5638 46.1581 83.7645 46.0486 83.7645C45.9391 83.7645 45.7239 83.5638 45.5705 83.3185ZM46.4734 82.4264C45.6118 82.0607 45.617 82.0417 46.5863 82.0118C47.1451 81.9946 47.6022 82.1811 47.6022 82.4264C47.6022 82.6718 47.5514 82.8584 47.4893 82.8411C47.4272 82.8239 46.9701 82.6373 46.4734 82.4264ZM45.4825 79.408C44.0248 79.1738 44.7062 77.9663 46.296 77.9663C47.1115 77.9663 47.6022 78.1997 47.6022 78.5876C47.6022 79.3294 46.837 79.6255 45.4825 79.408ZM46.5769 78.5889C46.4269 78.4407 46.0375 78.4248 45.7116 78.5537C45.3514 78.6961 45.4584 78.8017 45.9843 78.8231C46.4603 78.8425 46.727 78.7371 46.5769 78.5889V78.5889ZM45.7962 76.6283C45.4686 76.0235 45.4634 75.7363 45.7803 75.7363C46.0374 75.7363 46.2477 76.0373 46.2477 76.4053C46.2477 77.2154 46.9859 77.2934 47.3032 76.5168C47.4392 76.1837 47.5452 76.2735 47.5665 76.7398C47.6151 77.8045 46.3917 77.7275 45.7962 76.6283H45.7962ZM45.6747 74.1057C45.9804 73.9835 46.5899 73.9761 47.0292 74.0892C47.4685 74.2023 47.2184 74.3022 46.4734 74.3113C45.7285 74.3203 45.3691 74.2279 45.6747 74.1057V74.1057ZM39.9268 83.3185C39.9268 80.0837 39.3477 79.1538 38.8535 81.5948C38.594 82.8767 39.2301 86.4406 39.7184 86.4406C39.833 86.4406 39.9268 85.0356 39.9268 83.3185ZM27.0811 79.5385C27.3454 77.7973 27.2337 77.3659 26.2058 76.1591C24.7269 74.423 24.7124 72.8332 26.1562 70.7343C26.777 69.8318 27.2849 68.8063 27.2849 68.4553C27.2849 68.1044 27.5897 67.5674 27.9622 67.262C28.3346 66.9567 28.6394 66.4349 28.6394 66.1027C28.6394 65.7704 29.1473 65.1698 29.7681 64.768C31.1865 63.8499 31.2186 63.3109 29.8394 63.5713C28.4943 63.8253 27.634 62.9681 26.8356 60.5783C26.2677 58.8785 26.2793 58.627 26.9477 58.1442C27.398 57.8189 27.5986 57.2485 27.4543 56.7035C27.0444 55.155 28.4395 52.6234 30.1456 51.8197C31.4555 51.2026 32.3164 51.1518 35.5885 51.4983L39.4753 51.9099V49.1137V46.3176L41.2633 45.4165C43.5664 44.2558 47.1852 44.2468 49.7468 45.3954L51.6657 46.2558V48.7464C51.6657 51.0706 51.7241 51.2061 52.539 50.7753C53.0193 50.5213 54.2891 50.3065 55.3608 50.2978C56.4325 50.2888 57.8173 49.9951 58.4381 49.6445C60.0381 48.741 61.498 48.8286 62.1548 49.8676C62.465 50.3582 62.9746 50.7596 63.2874 50.7596C64.1854 50.7596 63.9217 52.202 62.7693 53.5939C61.8993 54.6445 61.7767 55.1376 62.0681 56.414C62.2624 57.2649 62.7413 58.3103 63.1325 58.7373C63.746 59.4069 63.7692 59.864 63.3019 62.0652C62.8404 64.2385 62.5903 64.6531 61.6149 64.8616C59.3983 65.3356 59.2683 65.4287 59.717 66.2207C59.9512 66.6342 60.9275 67.4977 61.8866 68.1395C64.1469 69.6523 64.7018 71.3287 64.7335 76.7398C64.7475 79.1315 64.8782 81.0884 65.0238 81.0884C65.3489 81.0884 69.274 78.3256 69.274 78.0968C69.274 78.0064 68.7225 77.9903 68.0484 78.0609C65.6871 78.3083 66.4915 76.9134 70.6751 73.5062L74.7823 70.1611L74.495 66.9539C73.8934 60.2405 71.56 55.2798 66.7797 50.5515C61.1945 45.0271 55.2859 42.3292 47.9385 41.9482C42.4689 41.6646 38.4444 42.5297 33.5087 45.0501C25.4328 49.1738 21.0004 55.4674 19.3417 65.1655L18.6159 69.4096L22.0474 72.6296C23.9348 74.4006 25.479 76.1161 25.479 76.4418C25.479 76.7674 24.7656 77.1661 23.8937 77.3276C23.0219 77.4892 22.2092 77.7802 22.0878 77.9742C21.8785 78.3087 25.8094 81.4922 26.4672 81.5209C26.6382 81.5279 26.9145 80.6362 27.0811 79.5384L27.0811 79.5385ZM53.0058 66.204C52.9978 65.9274 52.6931 65.3115 52.3285 64.8353C51.7127 64.0309 51.6656 64.106 51.6656 65.8934C51.6656 67.553 51.7587 67.741 52.3429 67.2621C52.7154 66.9567 53.0137 66.4805 53.0058 66.204ZM17.6288 55.3445C17.3047 55.0244 14.1353 55.1394 13.7777 55.4843C13.6743 55.5841 14.5716 55.6658 15.7718 55.6658C16.972 55.6658 17.8077 55.5212 17.6288 55.3445ZM16.9006 54.1739C16.9006 54.0893 16.4434 53.6376 15.8847 53.1703L14.8688 52.3207L15.7289 53.3242C16.5372 54.2673 16.9006 54.5308 16.9006 54.1739ZM18.255 51.9438C18.255 51.8592 17.7979 51.4076 17.2392 50.9403L16.2233 50.0906L17.0834 51.0942C17.8917 52.0372 18.255 52.3007 18.255 51.9438ZM20.5125 47.4146C20.2034 47.0466 19.7333 46.7455 19.4679 46.7455C19.2026 46.7455 19.3799 47.0402 19.8619 47.4004C20.9944 48.2466 21.2156 48.2514 20.5125 47.4146V47.4146ZM46.8183 47.7696C46.263 47.6637 45.2471 47.661 44.5608 47.7636C43.8745 47.8661 44.3289 47.9528 45.5705 47.9561C46.8121 47.9591 47.3736 47.8756 46.8183 47.7697V47.7696ZM42.4416 47.2421C41.8747 46.336 43.5893 45.7499 46.2506 45.9401C47.7433 46.0467 48.7089 45.9737 48.3963 45.7776C47.683 45.3303 43.0227 45.3079 42.3949 45.7489C41.8465 46.134 41.8797 47.6376 42.4367 47.6376C42.5755 47.6376 42.5778 47.4596 42.4417 47.2421L42.4416 47.2421ZM49.4658 46.857C50.0274 46.1496 50.0114 46.1339 49.2953 46.6887C48.8607 47.0253 48.5052 47.3766 48.5052 47.4692C48.5052 47.8363 48.8759 47.6 49.4658 46.857ZM23.673 47.0463C23.673 46.9664 23.1142 46.4145 22.4314 45.8198L21.1898 44.7385L22.2843 45.965C23.3074 47.1114 23.673 47.3961 23.673 47.0463ZM46.5916 46.8851C46.1599 46.7735 45.3472 46.7694 44.7856 46.8761C44.224 46.9828 44.5772 47.0741 45.5705 47.0791C46.5637 47.0841 47.0233 46.9968 46.5916 46.8851ZM24.576 46.1457C24.576 46.0611 24.1188 45.6094 23.5601 45.1421L22.5442 44.2925L23.4043 45.296C24.2126 46.2391 24.576 46.5026 24.576 46.1457ZM24.576 44.2925C23.9927 43.6792 23.1954 43.1902 22.8042 43.2057C22.3029 43.2256 22.3641 43.3426 23.0114 43.6018C23.5167 43.8042 24.2019 44.2932 24.534 44.6886C24.8662 45.084 25.2501 45.4075 25.3872 45.4075C25.5242 45.4075 25.1592 44.9057 24.576 44.2925ZM29.411 41.043C29.4494 40.5391 29.1594 40.2465 28.6217 40.2465C27.8342 40.2465 27.8253 40.3052 28.5012 41.043C28.9025 41.481 29.2577 41.8394 29.2906 41.8394C29.3234 41.8394 29.3776 41.481 29.411 41.043ZM30.7566 38.8288C30.6431 38.3995 30.5501 38.7507 30.5501 39.6094C30.5501 40.4679 30.643 40.8192 30.7566 40.3899C30.8702 39.9606 30.8702 39.2581 30.7566 38.8288ZM32.9892 39.0678C32.7122 38.6297 32.3314 38.2713 32.1428 38.2713C31.9542 38.2713 31.7999 38.6297 31.7999 39.0678C31.7999 39.5491 32.1347 39.8642 32.6463 39.8642C33.3458 39.8642 33.4053 39.726 32.9892 39.0678ZM44.1162 35.0953C43.8891 34.8709 43.8201 35.4174 43.9545 36.3762C44.1703 37.9154 44.2017 37.9465 44.3506 36.7674C44.4395 36.063 44.3341 35.3105 44.1162 35.0953ZM47.0121 36.1612C46.8976 35.7273 46.7964 35.9743 46.7872 36.7103C46.7782 37.4462 46.8717 37.8012 46.9953 37.4993C47.119 37.1973 47.1266 36.5952 47.0121 36.1612H47.0121ZM42.9348 35.9297C42.8095 35.6231 42.707 35.874 42.707 36.4873C42.707 37.1005 42.8095 37.3514 42.9348 37.0448C43.06 36.7381 43.06 36.2364 42.9348 35.9297ZM45.6437 35.9297C45.5185 35.6231 45.416 35.874 45.416 36.4873C45.416 37.1005 45.5185 37.3514 45.6437 37.0448C45.769 36.7381 45.769 36.2364 45.6437 35.9297ZM6.12193 62.6576C6.02703 56.8711 8.91438 49.8404 13.7365 44.1164C19.4673 37.3138 32.2241 30.5662 39.0224 30.7416L41.0555 30.7941L38.9142 31.1502C27.1264 33.1106 15.1405 41.59 10.1829 51.476C8.50571 54.8205 7.03727 59.5969 6.55543 63.275L6.17919 66.1471L6.12193 62.6576ZM86.7325 63.917C85.3392 55.353 81.2562 47.7956 74.7437 41.7266C70.1689 37.4634 65.3239 34.4638 60.5363 32.9307C59.0118 32.4426 58.7048 32.4692 58.053 33.1459C57.5004 33.7197 57.4543 33.9712 57.8737 34.1248C58.6828 34.4212 58.5701 35.9239 57.7028 36.4034C57.1681 36.699 57.1148 36.8997 57.5071 37.1392C58.2255 37.5778 58.4844 37.2621 58.8457 35.5064C59.0647 34.4427 59.4266 33.9946 60.1499 33.8914C61.3692 33.7175 61.8564 34.7318 61.1659 36.0064C60.7189 36.8316 60.7893 36.9333 61.8084 36.9333C63.0754 36.9333 63.4181 38.123 62.2758 38.556C61.9033 38.6972 61.5985 39.1067 61.5985 39.4659C61.5985 40.0192 61.707 40.0119 62.308 39.4182C63.7921 37.9522 67.468 39.262 67.468 41.2569C67.468 41.8946 67.5708 41.8858 68.3603 41.1799C68.8511 40.7411 69.1525 40.2221 69.0302 40.0266C68.6783 39.4642 69.646 39.0783 70.6325 39.3876C71.8671 39.7747 71.7586 40.8873 70.344 42.3459C69.2472 43.4768 69.2299 43.5513 70.1174 43.322C71.235 43.0334 73.3374 44.2417 73.3374 45.1726C73.3374 45.5227 72.9818 46.0138 72.5473 46.2638C72.1127 46.5138 71.9815 46.7245 72.2556 46.732C72.5297 46.739 73.3021 46.2438 73.972 45.6305C75.4143 44.3101 75.8505 44.2511 76.4472 45.296C76.7963 45.9073 76.6299 46.3011 75.6795 47.1123C75.0121 47.682 74.6971 48.0354 74.9793 47.8977C75.6406 47.5752 76.6696 48.7862 76.273 49.4202C76.1065 49.6862 75.6052 49.7894 75.1588 49.6495C74.6633 49.4941 74.2441 49.6607 74.0823 50.0773C73.9108 50.5188 74.0783 50.7596 74.5576 50.7596C74.9648 50.7596 75.7203 51.1056 76.2365 51.5283C76.7527 51.9511 76.9211 52.0113 76.6107 51.6621C75.4336 50.338 75.9322 49.8211 78.1345 50.0822C79.2829 50.2184 80.4004 50.4384 80.6177 50.5711C81.356 51.0218 81.0168 52.0977 80.1364 52.0977C79.0954 52.0977 78.507 51.3678 79.3169 51.081C79.6288 50.9705 79.238 50.9005 78.4482 50.9254C77.1519 50.9663 76.7427 51.4287 78.0028 51.4287C78.2925 51.4287 78.5927 51.9691 78.67 52.6297C78.7811 53.5804 78.5308 53.9735 77.4691 54.5159C76.7315 54.8927 76.0466 55.442 75.9472 55.7366C75.7002 56.4687 74.2883 55.8776 73.9376 54.8954C73.7824 54.4605 73.1459 53.425 72.5233 52.5942C71.5316 51.271 71.4649 50.9669 71.9854 50.1412C72.5111 49.307 72.4992 49.2641 71.8822 49.7677C71.2884 50.2523 70.7108 49.8713 67.9937 47.2031C66.2386 45.4796 64.5263 44.0695 64.1887 44.0695C63.851 44.0695 63.1809 43.7182 62.6995 43.2889C61.5929 42.3021 57.9652 40.9514 55.1229 40.468C52.4308 40.0101 51.5474 39.3525 51.9373 38.0968C52.37 36.703 52.4712 36.6874 53.6974 37.8253C54.3162 38.3996 54.9313 38.7621 55.0642 38.6308C55.197 38.4996 54.7915 38.0593 54.163 37.6524C52.7165 36.7162 52.5378 34.2983 53.8892 33.9492C54.5008 33.7912 54.735 33.3741 54.6794 32.5414C54.6173 31.6114 54.3104 31.2991 53.2459 31.0823C52.174 30.8641 52.3785 30.7943 54.2258 30.7478C58.7709 30.6335 66.8814 34.1078 73.1019 38.834C80.9693 44.8113 87.6704 56.6187 87.2402 63.746L87.0952 66.1471L86.7325 63.917ZM77.6648 52.9287C77.8414 52.6463 77.3597 52.7807 76.5943 53.2274C75.3787 53.9367 75.1039 53.9589 74.4232 53.4031C73.7034 52.8153 73.6906 52.8409 74.2554 53.737C74.8199 54.6325 74.9623 54.6585 76.1053 54.0746C76.7863 53.7267 77.4881 53.211 77.6648 52.9287ZM73.2502 49.6328C73.1112 49.4955 72.8587 49.743 72.6892 50.1829C72.4441 50.8186 72.496 50.8698 72.9419 50.4326C73.2505 50.13 73.3892 49.7701 73.2502 49.6328ZM73.0013 48.1837C72.8248 47.7289 72.6325 47.726 72.043 48.169C71.6375 48.4738 71.2417 48.7596 71.1635 48.804C71.0853 48.8484 71.5165 48.8551 72.1217 48.8187C72.8114 48.7773 73.1398 48.5403 73.0013 48.1837ZM75.4726 48.7061C75.3225 48.5579 74.9331 48.5421 74.6072 48.6709C74.247 48.8133 74.354 48.919 74.88 48.9404C75.3559 48.9598 75.6226 48.8544 75.4726 48.7061V48.7061ZM74.298 46.857C74.8596 46.1496 74.8436 46.1339 74.1275 46.6887C73.6929 47.0253 73.3374 47.3766 73.3374 47.4692C73.3374 47.8363 73.7082 47.6 74.298 46.857ZM69.1234 44.7581C69.1234 44.4009 68.9508 44.2141 68.7398 44.3429C68.5288 44.4717 68.4731 44.764 68.616 44.9923C68.9811 45.5759 69.1234 45.5102 69.1234 44.7581ZM67.977 43.735C68.5386 43.0276 68.5227 43.0118 67.8066 43.5666C67.0545 44.1492 66.8153 44.5155 67.1869 44.5155C67.2806 44.5155 67.6362 44.1642 67.977 43.735ZM66.565 41.2338C66.565 40.6671 66.3564 40.9202 65.6982 42.2854C65.1914 43.3368 65.2008 43.351 65.8628 42.5347C66.249 42.0585 66.565 41.4731 66.565 41.2338ZM65.1008 40.6903C64.6564 40.2514 63.856 40.9252 63.856 41.7383C63.856 42.4191 63.9154 42.4179 64.6192 41.7226C65.039 41.3079 65.2557 40.8434 65.1008 40.6903V40.6903ZM69.783 41.5049C70.3446 40.7975 70.3287 40.7817 69.6126 41.3365C68.8605 41.9192 68.6213 42.2854 68.9929 42.2854C69.0866 42.2854 69.4422 41.9342 69.783 41.5049ZM63.578 40.0554C64.0157 39.474 63.9782 39.4666 63.2916 39.9985C62.8571 40.3351 62.5176 40.9372 62.5372 41.3365C62.567 41.9437 62.6138 41.953 62.8235 41.3934C62.9614 41.0254 63.3009 40.4233 63.578 40.0554ZM60.5525 39.0797C60.4083 38.7239 60.3013 38.8296 60.2797 39.3492C60.2601 39.8193 60.3668 40.0828 60.5168 39.9346C60.6668 39.7864 60.6829 39.4017 60.5524 39.0797H60.5525ZM54.2221 35.0377C54.0969 34.7311 53.9944 34.982 53.9944 35.5952C53.9944 36.2085 54.0969 36.4594 54.2221 36.1528C54.3474 35.8461 54.3474 35.3444 54.2221 35.0377ZM56.4063 35.5952C56.2529 35.3499 55.9241 35.1492 55.6758 35.1492C55.4275 35.1492 55.3499 35.3499 55.5034 35.5952C55.6568 35.8405 55.9856 36.0413 56.2339 36.0413C56.4822 36.0413 56.5598 35.8405 56.4063 35.5952ZM56.4063 34.2572C56.7595 33.6927 56.1618 33.6927 55.2776 34.2572C54.694 34.6298 54.7059 34.6905 55.3638 34.6964C55.7837 34.7004 56.2528 34.5025 56.4063 34.2572H56.4063ZM56.8578 32.0271C57.0113 31.7818 56.8081 31.5811 56.4063 31.5811C56.0045 31.5811 55.8014 31.7818 55.9548 32.0271C56.1083 32.2725 56.3115 32.4732 56.4063 32.4732C56.5012 32.4732 56.7044 32.2725 56.8578 32.0271ZM12.0765 62.7989C10.1692 62.0397 9.5368 59.3743 10.831 57.5491C11.6169 56.4407 11.8634 56.3755 12.8371 57.0191C13.4263 57.4086 13.4065 57.5483 12.6846 58.0936C11.4068 59.0589 11.9067 60.324 13.6309 60.4887C14.4525 60.5672 15.0946 60.4204 15.0946 60.1542C15.0946 59.8933 14.9422 59.7037 14.756 59.7327C13.7369 59.8917 13.434 59.5755 13.6309 58.5583C13.9191 57.0689 14.5027 56.7788 15.8149 57.4726C17.3208 58.2687 17.3093 60.6547 15.7924 62.1532C14.6333 63.2983 13.7269 63.4557 12.0765 62.7989H12.0765ZM13.7401 62.1656C13.7401 62.0609 13.1271 61.6732 12.378 61.304C11.6289 60.9348 11.1417 60.8339 11.2955 61.0796C11.4492 61.3254 12.0114 61.7004 12.5447 61.9129C13.7624 62.3983 13.7401 62.3936 13.7401 62.1656ZM11.6549 58.0957C11.8091 57.6988 11.7334 57.5197 11.4775 57.676C11.232 57.8259 11.0311 58.1373 11.0311 58.3682C11.0311 59.0097 11.3547 58.8684 11.6549 58.0957ZM78.9849 61.283C77.1205 60.9297 76.2357 60.5446 76.138 60.0437C75.9167 58.9085 76.6039 58.7786 79.2221 59.4609C80.5564 59.8086 81.7131 60.0288 81.7925 59.9503C82.0956 59.6509 81.3437 58.3404 80.8516 58.3105C80.5678 58.2933 80.7419 58.1067 81.2385 57.8958L82.1415 57.5125L81.2385 57.4498L80.3356 57.3871L81.2385 57.0038C81.7352 56.793 82.3756 56.6064 82.6617 56.5891C83.2962 56.5509 84.1733 58.9006 84.1733 60.6385C84.1733 62.1014 83.6483 62.1666 78.9849 61.283V61.283ZM81.7935 60.7485C81.6435 60.6003 81.2541 60.5844 80.9281 60.7133C80.568 60.8556 80.6749 60.9613 81.2009 60.9827C81.6769 61.0021 81.9435 60.8966 81.7935 60.7485V60.7485ZM83.1178 59.5684C82.9925 59.2618 82.8901 59.5126 82.8901 60.1259C82.8901 60.7392 82.9925 60.99 83.1178 60.6834C83.243 60.3768 83.243 59.875 83.1178 59.5684ZM45.0061 30.8157C45.689 30.7135 46.8065 30.7135 47.4894 30.8157C48.1722 30.9179 47.6135 31.0015 46.2478 31.0015C44.882 31.0015 44.3232 30.9179 45.0061 30.8157Z" fill="#E6A761"/>
</svg>
