<svg width="199" height="164" viewBox="0 0 199 164" fill="none" xmlns="http://www.w3.org/2000/svg">
<path d="M63.3019 163.899C51.0496 163.414 34.0641 162.003 27.7396 160.945C19.3716 159.545 14.478 156.96 10.0251 151.585C5.96434 146.684 4.20421 142.373 2.77798 133.835C0.497312 120.182 -0.0246017 110.371 0.000874574 81.6271C0.0425176 34.6461 2.31403 20.4648 11.3327 10.8816C17.5066 4.32134 22.7634 2.81435 45.8327 0.991325C62.523 -0.327582 135.324 -0.331441 151.896 0.98577C166.897 2.17819 175.749 3.57478 179.8 5.38841C189.035 9.52369 194.345 17.8214 196.389 31.3108C198.53 45.4409 199 54.4358 199 81.2596C199 109.333 198.389 120.494 196.13 133.73C194.021 146.079 190.025 152.869 182.232 157.344C173.543 162.333 158.989 163.619 107.911 163.912C86.6357 164.034 66.5618 164.028 63.3019 163.898V163.899ZM84.1577 113.588C85.5056 112.387 86.835 111.403 87.1118 111.403C87.3887 111.403 88.953 110.437 90.5881 109.257C92.2232 108.076 95.2494 106.008 97.3131 104.662C99.3767 103.315 105.205 99.4009 110.264 95.9638C115.323 92.5267 120.233 89.2182 121.173 88.6116C126.388 85.2502 130.059 82.5196 130.059 82.0033C130.059 81.3631 128.16 80.22 127.408 80.4076C127.15 80.4718 126.94 80.2178 126.94 79.843C126.94 79.2021 126.139 78.6173 121.169 75.6293C120.053 74.9588 118.439 73.8481 117.581 73.1611C116.723 72.4741 114.758 71.0831 113.214 70.07C111.67 69.0568 108.675 67.0245 106.558 65.5536C104.441 64.0827 102.498 62.8793 102.24 62.8793C101.981 62.8793 101.319 62.3982 100.767 61.8102C100.216 61.2222 97.8076 59.4508 95.4152 57.8738C93.0228 56.2967 88.8194 53.4718 86.0742 51.5962C83.3291 49.7206 80.8725 48.1835 80.6151 48.1805C80.3577 48.1777 80.1472 63.3939 80.1472 81.9947C80.1472 108.571 80.3141 115.81 80.927 115.794C81.356 115.783 82.8098 114.79 84.1577 113.588Z" fill="#F4B570"/>
</svg>
